<?xml version="1.0" encoding="utf-8"?>
<!-- Generator: Adobe Illustrator 19.0.0, SVG Export Plug-In . SVG Version: 6.00 Build 0)  -->
<svg version="1.1" id="Layer_1" xmlns="http://www.w3.org/2000/svg" xmlns:xlink="http://www.w3.org/1999/xlink" x="0px" y="0px"
	 width="1400px" height="980px" viewBox="0 0 1400 980" style="enable-background:new 0 0 1400 980;" xml:space="preserve">
<style type="text/css">
	.st0{clip-path:url(#XMLID_673_);}
	.st1{fill:url(#XMLID_709_);}
	.st2{fill:#E6F4E7;}
	.st3{fill:#C2C7DB;}
	.st4{fill:#46706D;}
	.st5{fill:#919A4B;}
	.st6{fill:#A1AB52;}
	.st7{fill:#F7B523;}
	.st8{fill:#F49625;}
	.st9{fill:#F9D07D;}
	.st10{fill:#F73939;}
	.st11{fill:#BC1D1D;}
	.st12{fill:#104666;}
	.st13{fill:#0C374C;}
	.st14{fill:#CE2828;}
	.st15{fill:#A5ABB7;}
	.st16{fill:#600707;}
	.st17{fill:#2E7CA3;}
	.st18{fill:#DADDE4;}
	.st19{fill:url(#XMLID_711_);}
	.st20{opacity:0.5;fill:#600707;}
	.st21{fill:#D9C25C;}
	.st22{fill:#B3A856;}
	.st23{fill:#914320;}
	.st24{fill:#FEE7C7;}
	.st25{fill:#B2BC5B;}
	.st26{fill:#9EB158;}
	.st27{fill:#BD8138;}
	.st28{fill:#FCB865;}
	.st29{fill:#A55A1C;}
	.st30{fill:url(#XMLID_712_);}
	.st31{fill:#C49A6C;}
	.st32{fill:#E5AF6E;}
	.st33{fill:#A97C50;}
	.st34{fill:#F9E7C7;}
	.st35{fill:#C73736;}
	.st36{fill:#EE4542;}
	.st37{fill:#2F506F;}
	.st38{fill:#3A7893;}
	.st39{fill:#275A75;}
	.st40{fill:#565F7C;}
	.st41{fill:#305170;}
	.st42{fill:#9B1D20;}
	.st43{fill:#58A2BC;}
	.st44{fill:#186F80;}
	.st45{fill:#5A3628;}
	.st46{fill:#343A5A;}
	.st47{fill:#F7C6A8;}
	.st48{fill:url(#XMLID_713_);}
	.st49{fill:#F7A89B;}
	.st50{fill:url(#XMLID_714_);}
	.st51{fill:#F24242;}
	.st52{fill:url(#XMLID_715_);}
	.st53{fill:url(#XMLID_716_);}
	.st54{fill:url(#XMLID_718_);}
	.st55{fill:url(#XMLID_720_);}
	.st56{fill:#F38C87;}
	.st57{fill:#FFFFFF;}
	.st58{fill:#FAD9C6;}
	.st59{fill:#C92F6E;}
	.st60{fill:#E25D99;}
	.st61{fill:#282B34;}
	.st62{opacity:0.5;fill:#99320E;}
	.st63{fill:url(#XMLID_721_);}
	.st64{fill:#ED6861;}
	.st65{fill:url(#XMLID_722_);}
	.st66{fill:#CE654F;}
	.st67{fill:#ECC7AD;}
	.st68{fill:#E4AD8E;}
	.st69{fill:#CC977D;}
</style>
<g id="XMLID_592_">
	<defs>
		<rect id="XMLID_6_" width="1400" height="980"/>
	</defs>
	<clipPath id="XMLID_673_">
		<use xlink:href="#XMLID_6_"  style="overflow:visible;"/>
	</clipPath>
	<g id="XMLID_3_" class="st0">
		<g id="XMLID_131_">
			<linearGradient id="XMLID_709_" gradientUnits="userSpaceOnUse" x1="700" y1="-17" x2="700" y2="477.3359">
				<stop  offset="0" style="stop-color:#99DAEE"/>
				<stop  offset="1" style="stop-color:#E6F2CE"/>
			</linearGradient>
			<rect id="XMLID_1_" class="st1" width="1400" height="980"/>
			<path id="XMLID_5_" class="st2" d="M1056.9,534.8c-4.4-21.1,46.7-82.9,73.3-88.7c22.9-5,36.6,10.2,58.6,1.8
				c11.1-4.3,23.3-16,34.6-21.2c8.8-4.1,18.3,4.8,25.6-3.9c12.7-15.2-5.3-35.8-8.5-49.9c-5.9-25.9-0.3-43.4,15.7-64.5
				c11.5-15.2,31.7-37.4,52.1-40.2c18.6-2.6,24.9,12.8,38.8,14.1c36.5,3.3,52.1-47.3,91-14c49.7,42.7,167.3,193.4,65.9,239.5
				c-37.6,17.1-106.3,13.1-147.7,15.9c-60.9,4.1-121.4,7.7-181.8,17.1C1136.7,546.7,1094.6,559,1056.9,534.8z"/>
			<path id="XMLID_4_" class="st2" d="M153.8,258.8c37.5-51.5,90.3-94.9,158.4-90.2c29.6,2.1,31.3,13,49.5,30.2
				c5.2,5,1.1,10.4,7.9,15.1c6.8,4.6,25.2,0.7,34.1,5.8c21.8,12.5,11.2,25.8,26.9,42.2c20.5,21.4,26.8-6.1,48.7-22.7
				c64.2-48.5,73.7,1.2,76.9,55.2c41.2-2.9,12.2,46.7,62.7,39.3c40.6-5.9,101.3-35.7,99.3,29.7c34.4,0.9,36.7,10.4,61.9,26.7
				c7.9,5.1,23.5,6.8,28.9,11.3c12.4,10.3,8.5,23.7,18.1,32.8c28.5,27,93.1,15.1,128.6,34.6c32.7,18,71.1,17,110.2,23.3
				c41.9,6.8,71.4,21.1,47.9,75.8c-14.6,33.9-60,27.8-94.8,30c-200.2,12.6-404.8,9.4-604-14.8c-71.2-8.7-146.4-11.8-216.8-26.1
				c-35.7-7.2-42.1-21.7-60-54.7C90.3,414.1,84.1,343.3,153.8,258.8z"/>
		</g>
		<path id="XMLID_270_" class="st3" d="M1051.1,587.6c-6.5,8.5-63.3-23-73.3-27.1c-27.6-11.3-57.8-19.9-83.2-35.9
			c-10.7-6.7-18.7-15-29.6-20.6c0.2-0.9,0.3-2.1,0.3-3.6c0-5.9-1.9-14.6-1.9-14.6s-1.9,8.7-1.9,14.6c0,0.8,0,1.4,0.1,2
			c-0.5-0.2-1-0.4-1.5-0.7c-9.2-3.7-19.3-4.2-28.3-6.7c0-0.2,0-0.3,0-0.5c0-5.9-1.9-14.6-1.9-14.6s-1.7,8-1.8,13.9
			c-6.2-2.2-11.6-5.8-15.4-12.7c-1.7-3-3-6-4.2-8.9c0.2-0.3,0.4-0.6,0.5-1c0.5-1.9,0.9-4.5,0.9-8c0-11-3.5-27.1-3.5-27.1
			s-2.6,11.9-3.3,22.2c-3.9-8.8-9.3-16-22.6-18.9c-28.2-6.2-58.7,13.4-83.6-6.9c-7.8-6.4-11.2-16.7-18.4-23.1
			c-11.3-10-22.9-7.5-36.7-10.7c-12.8-3-22.9-3.7-35-4.3c0.2-0.9,0.3-2.1,0.3-3.7c0-5.9-1.9-14.6-1.9-14.6s-1.9,8.7-1.9,14.6
			c0,1.5,0.1,2.6,0.3,3.5c-2.2-0.1-4.4-0.2-6.8-0.4c-0.8-0.1-1.7-0.1-2.5-0.2c0-0.1,0-0.1,0.1-0.2c0.5-1.9,0.9-4.5,0.9-8
			c0-11-3.5-27.1-3.5-27.1s-3.5,16.1-3.5,27.1c0,3.3,0.3,5.8,0.8,7.6c-3.8-0.5-7.7-1.3-11.6-2.2c0.1-0.2,0.2-0.3,0.3-0.5
			c0.3-1,0.5-2.4,0.5-4.3c0-5.9-1.9-14.6-1.9-14.6s-1.9,8.7-1.9,14.6c0,1.9,0.2,3.3,0.5,4.3c-15.1-3.7-30.5-9.2-44.6-12.7
			c-24.6-6-44.3-17.2-67.6-26.5c-27.7-11-56.1-19.4-83.5-31.3c-32-13.9-63-26.4-93.6-42.7c-8.1-4.3-18.7-5.8-27.3-9.5
			c0-0.4,0-0.8,0-1.2c0-5.9-1.9-14.6-1.9-14.6s-1.7,8.1-1.8,14c-0.6-0.3-1.2-0.7-1.7-1.1c-6.9-4.6-6.9-10.1-11.9-15.9
			c-11.7-13.5-37.5-19.1-55-22.5c-6.9-1.3-13.5-2.6-19.9-4c0-0.5,0-1,0-1.5c0-6.9-2.2-17-2.2-17s-2.2,10.1-2.2,17c0,0.2,0,0.4,0,0.6
			c-3.2-0.7-6.5-1.4-9.6-2.2c0.1-1.4,0.2-2.9,0.2-4.6c0-12.8-4-31.7-4-31.7s-4,18.9-4,31.7c0,1,0,1.9,0.1,2.7c-4-1-8-2.1-11.9-3.3
			c-0.2-6.8-2.2-15.7-2.2-15.7s-1.7,7.8-2.1,14.4c-14.5-4.7-28.7-10.8-43.5-19.6c-38.7-23-103.9-42.4-124.1-85.5v562.5
			c14.6,11.9,56.2-2.8,73-6.4c53.2-11.2,106.1-22.5,159.5-32.9c78.4-15.3,156.4-29,235.5-39.9c80.6-11.1,162.6-9.1,243.8-12
			c97.6-3.4,192.6,1.3,289.3,12.8c27.8,3.3,61.2,14.6,89.2,10.6C1052.5,597.9,1052.8,592.1,1051.1,587.6z"/>
		<g id="XMLID_114_">
			<path id="XMLID_128_" class="st4" d="M735.8,533.2c-8-1.9-5.3-0.7-12.2-4.8c-9.7-5.8-17.2-15.8-29.6-14.5c4.3-26-36-24.8-50.9-23
				c0.3-16.5-5.3-24.8-14.3-27.2c0-0.1,0.1-0.1,0.1-0.2c0.7-2.8,1.3-6.6,1.3-11.8c0-16.2-5.1-40-5.1-40s-5.1,23.8-5.1,40
				c0,5,0.5,8.6,1.1,11.3c-6.2,0.3-13.4,2.4-20.9,5.9c-9.1-15-18.4-22.7-36.2-18c-8.4-18.4-37.8-16.6-51-1.9
				c-8.7-2.4-7.4-1.7-6.3-0.8c-14.9,13.3-17.9,40-19.9,58.4c-1.8,16.9-0.5,33.9-0.7,50.9c-0.1,7.8-4.4,23.6,0.2,30.7
				c21.2,4.5,47.1-2.9,68.1-6.7c23.5-4.3,47.1-7.6,70.6-11.8c21.3-3.8,43.1-6.4,64.6-8.7c22.2-2.4,49.6-0.5,68.7-13.2
				C754.3,537.2,747.8,536,735.8,533.2z"/>
			<path id="XMLID_130_" class="st4" d="M217.2,351.4c-8,1-16.3,6.3-24.1,4.8c1.9-7.1,1.1-20.2-5.9-25.1c-3.4-2.4-7.6-2.5-12.1-1.9
				c0.7-2.7,1.2-6.5,1.2-11.5c0-16.2-5.1-40-5.1-40s-5.1,23.8-5.1,40c0,5.3,0.5,9.1,1.3,11.8c0.1,0.4,0.3,0.8,0.5,1.1
				c-4.4,0.9-8.7,1.8-12.5,1.3c0.5-9.9-3.5-16.8-13.7-15.3c-25,3.6-27.3,40-35.8,56.3c-1.2-5.7-3.9-12.1-8.1-16.6
				c-1.2-14.9-4.7-31.6-4.7-31.6s-2.8,13.2-4.3,26.7c-3-0.3-6.3,0.4-9.3,0.4c0.3-3.8,0.6-8.2,0.6-13c0-37.3-11.8-92.1-11.8-92.1
				s-11.8,54.8-11.8,92.1c0,0.4,0,0.8,0,1.3c-4.6,0.8-8.9,3.1-13,4c-4.3-13.3-19.9-3.6-27.5,1.1C-1.5,355.6-8.9,375-8,395
				c1.5,30.7-4.2,65.7,6.2,94C11.7,525.2,61,541.4,95,550.2c29.7,7.7,61.7,9.9,92.3,8.9c47.1-1.5,57.4-52.5,59.6-89.9
				c0.7-11.9,0.5-23.8-1.8-35.4c-1.6-8-6.6-17.7-5-25.9c1-5.2,7.2-11.5,13-11.9c6-5.1,3.4-20.5,0.3-26.9
				C246.6,354.7,231.9,349.5,217.2,351.4z"/>
		</g>
		<g id="XMLID_117_">
			<path id="XMLID_111_" class="st5" d="M973.1,584.6c-1-4.2-2.1-8.3-3.4-12.5c-15.7-0.3-30.8-8.7-45.9-13.1
				c-23.9-7-49.4-16.6-74.3-18.1c-19.2-1.1-44.4,8.5-60.6,2.1c-2.5-1-7-7.2-11-8.9c-8-3.6-20.7-2.8-28.9-1.3
				c-12.4,2.3-20.4,9.7-30.8,9.4c-5.5-0.1-13.1-4.1-20.2-4.2c-12.9-0.1-25.8,1.6-37.8,6.1c8-10.9,8.4-27.9-3.4-35.9
				c-17.6-11.9-41.1,2.4-55.2,11.4c6.7-16.3,5.8-50.1-21.3-34.3c-6.6-42.1-57.4,3.5-70.5,12c-7.5-58.1-85.9,1.6-106.8,12.1
				c-1.1,2.7-2.5,5.2-4.4,7.5c-1.8-18.7-7.9-39.1-26.5-47.8c-30.4-14.2-51.1,17.5-75.8,26.8c-8.3-24.8-13-38.9-44.4-37.5
				c-15.7,0.7-31.1,7-42.4,17.9c-5.9,5.6-9.5,15.1-16.6,18c-6.8-11.4-8.7-22.5-24.1-22.3c-14.7,0.2-28,14.1-36,25
				c1.8-14.2,3.3-33-6.7-45.3c-15.7-19.3-38.1-7.7-51.4,5.2c-1.6-23-5-46-23.1-62.9c-23.3-21.8-59.6-10.3-79.2,12
				c-3.1,3.5,1.5,30.3,1.2,38c-1.7,38.5-0.9,76.6,1.1,115c1.8,36.3,0.4,72.7,2.2,109c0.4,7.5,2.1,23,4.6,24.5
				c20.6-3.3,47.5-14.3,69.5-16.4c80.5-7.5,163.7-3.9,244.4-7.1c81.5-3.2,163.2-3.6,244.7-8.4c86.8-5.1,172.9-12.7,260-13.1
				C866.7,647.3,922.3,617.5,973.1,584.6z"/>
			<g id="XMLID_116_">
				<path id="XMLID_115_" class="st6" d="M708,492c0,18.5-1.9,32-4.5,41.7c-3.7,13.8-23.4,13.8-27.1,0c-2.6-9.7-4.5-23.1-4.5-41.7
					c0-57.1,18-140.9,18-140.9S708,434.9,708,492z"/>
				<g id="XMLID_122_">
					<path id="XMLID_127_" class="st5" d="M690,351.1c0,0,18,115.5-4.4,192.3c7,2.2,15.7-1,18-9.7c2.6-9.7,4.5-23.1,4.5-41.7
						C708,434.9,690,351.1,690,351.1z"/>
				</g>
			</g>
			<g id="XMLID_291_">
				<path id="XMLID_308_" class="st6" d="M142.2,482.2c0,18.5-1.9,32-4.5,41.7c-3.7,13.8-23.4,13.8-27.1,0
					c-2.6-9.7-4.5-23.1-4.5-41.7c0-57.1,18-140.9,18-140.9S142.2,425.1,142.2,482.2z"/>
				<g id="XMLID_292_">
					<path id="XMLID_298_" class="st5" d="M124.2,341.3c0,0,18,115.5-4.4,192.3c7,2.2,15.7-1,18-9.7c2.6-9.7,4.5-23.1,4.5-41.7
						C142.2,425.1,124.2,341.3,124.2,341.3z"/>
				</g>
			</g>
			<g id="XMLID_318_">
				<path id="XMLID_324_" class="st6" d="M44.9,421.3c0,18.5-1.9,32-4.5,41.7c-3.7,13.8-23.4,13.8-27.1,0
					c-2.6-9.7-4.5-23.1-4.5-41.7c0-57.1,18-140.9,18-140.9S44.9,364.2,44.9,421.3z"/>
				<g id="XMLID_319_">
					<path id="XMLID_321_" class="st5" d="M26.9,280.4c0,0,18,115.5-4.4,192.3c7,2.2,15.7-1,18-9.7c2.6-9.7,4.5-23.1,4.5-41.7
						C44.9,364.2,26.9,280.4,26.9,280.4z"/>
				</g>
			</g>
			<g id="XMLID_118_">
				<path id="XMLID_285_" class="st6" d="M736.6,525.9c0,7.2-0.7,12.4-1.7,16.1c-1.4,5.3-9,5.3-10.5,0c-1-3.7-1.7-8.9-1.7-16.1
					c0-22,7-54.4,7-54.4S736.6,503.8,736.6,525.9z"/>
				<g id="XMLID_119_">
					<path id="XMLID_120_" class="st5" d="M729.6,471.4c0,0,7,44.6-1.7,74.3c2.7,0.9,6-0.4,6.9-3.7c1-3.7,1.7-8.9,1.7-16.1
						C736.6,503.8,729.6,471.4,729.6,471.4z"/>
				</g>
			</g>
			<g id="XMLID_315_">
				<path id="XMLID_320_" class="st6" d="M91.7,473.9c0,11.3-1.2,19.5-2.7,25.4c-2.2,8.5-14.3,8.5-16.5,0
					c-1.6-5.9-2.7-14.1-2.7-25.4c0-34.9,11-86.1,11-86.1S91.7,439,91.7,473.9z"/>
				<g id="XMLID_316_">
					<path id="XMLID_317_" class="st5" d="M80.7,387.8c0,0,11,70.5-2.7,117.4c4.3,1.4,9.6-0.6,11-5.9c1.6-5.9,2.7-14.1,2.7-25.4
						C91.7,439,80.7,387.8,80.7,387.8z"/>
				</g>
			</g>
			<g id="XMLID_126_">
				<path id="XMLID_295_" class="st6" d="M810.4,536.7c0,4-0.4,7-1,9.1c-0.8,3-5.1,3-5.9,0c-0.6-2.1-1-5.1-1-9.1
					c0-12.5,3.9-30.8,3.9-30.8S810.4,524.2,810.4,536.7z"/>
				<g id="XMLID_129_">
					<path id="XMLID_289_" class="st5" d="M806.5,505.9c0,0,3.9,25.2-1,42c1.5,0.5,3.4-0.2,3.9-2.1c0.6-2.1,1-5.1,1-9.1
						C810.4,524.2,806.5,505.9,806.5,505.9z"/>
				</g>
			</g>
		</g>
		<g id="XMLID_113_">
			<path id="XMLID_112_" class="st7" d="M523.7,577c5.6-7.2,29.3-42.8,42.9-42.2c3,0.1,5.8-1,7.7-3.3c1.8-2.2,3.8-4.4,5.9-6.5
				c1.9-1.9,4.5-4.9,6.8-6.1c1.6-0.8,5-0.5,6.1-1.3c2.9-1.9,3.7-4.6,5.3-8.3c3.9-8.9,11.6-21.3,21.1-28c4.6-3.2,11-1.4,13.2,3.7
				c0.3,0.7,0.6,1.3,0.9,1.9c5.4,0,16.2,0.6,13,8.7c5.5,1.5,11.7,1.6,17.2,4.5c6.5,3.4,4.7,6,7.9,11.7c1,1.8-0.7,2.4,1.2,3.9
				c2.3,1.8,7.3-1.1,10.3,1.4c4.4,3.7,4.5,13.9,5.1,19.2c15,3.7,30.4,17.1,31.9,33.2c-30.8-3.9-64.6,1.2-95.5,2.7
				c-25.8,1.2-51.9,0.1-77.8,0.1C541,572.3,529.3,574.9,523.7,577z"/>
			<g id="XMLID_121_">
				<path id="XMLID_124_" class="st8" d="M688.3,536.3c-0.5-5.3-0.7-15.6-5.1-19.2c-3-2.5-8,0.4-10.3-1.4c-1.9-1.5-0.2-2.1-1.2-3.9
					c-3.2-5.7-1.4-8.3-7.9-11.7c-1.7-0.9-3.5-1.5-5.4-2c0.7,1,1.4,2.1,1.9,3.4c3.2,7.9-1.6,12.2-9.3,14c4.9,3.9,5.4,15-0.2,18.7
					c-4.4,2.9-7-2.9-9.1-6c-0.1,4.4-4,8.4-8.4,8.7c-0.9-1.4-0.3-4.9-1.1-5.7c-1.1-1-3.9,0.2-5.1,0.3c-3.8,0.3-7.4-0.9-7.2-5.2
					c-2,9.1-6.3,22-18.3,20.2c-0.4,2.3,0.4,4.5-0.4,6.8c-1,3-4,6.7-6.4,8.6c-6.9,5.4-11.1,1.1-16.5-3.1c-0.4-0.3-1.8-1.7-2.3-1.7
					c-2.4,0.2-3.4,4.2-5,6.2c-3.1,3.8-8.2,6.6-12.4,9c0,0-0.1,0-0.1,0.1c22.1,0.2,44.3,0.9,66.2-0.2c30.9-1.5,64.7-6.5,95.5-2.7
					C718.7,553.4,703.3,540,688.3,536.3z"/>
				<path id="XMLID_125_" class="st9" d="M558.1,546c3.2,0.4,5.8-3.5,7.8-5.4c-0.5,3.2-1.6,5.6,1.6,6.1c4.5,0.7,11.7-4.4,12.9-8.6
					c6.4,0.8,10-8.8,10-13.9c2.8-0.3,7,9.6,8,1.5c2.4,3.2,3.7,4.5,6,0.9c2.2-3.5,3.7-8.4,3.9-12.5c1.1,4.7,3,6.1,7.2,1.4
					c-0.1,0.6,0.2,1.3,0.1,1.9c3.9-0.5,7.5-8.8,7.3-12.3c3.5,2.9,3.4,9.7,8,12c1.9-3.4,3-9.7-0.6-12.4c12.6,0.5,1.7-12-5.3-11.6
					c3.1-2.1,3.8-9.1,1.8-12.9c-2.4-0.7-5.2-0.3-7.4,1.3c-9.5,6.7-17.2,19.1-21.1,28c-1.6,3.7-2.4,6.4-5.3,8.3
					c-1.1,0.7-4.5,0.5-6.1,1.3c-2.4,1.2-4.9,4.2-6.8,6.1c-2.1,2-4.1,4.2-5.9,6.5c-1.9,2.3-4.7,3.4-7.7,3.3
					c-6.8-0.3-16.2,8.5-24.5,18.3c2.5-2.1,5-4.1,7.7-5.8C550.8,546.7,558.3,541.7,558.1,546z"/>
			</g>
		</g>
		<g id="XMLID_105_">
			<polygon id="XMLID_94_" class="st10" points="171,429.5 171,612 316,606.3 335.7,433.1 297.9,386 			"/>
			<g id="XMLID_151_">
				<g id="XMLID_205_">
					<rect id="XMLID_348_" x="300" y="424.5" class="st11" width="1" height="113.9"/>
				</g>
				<g id="XMLID_221_">
					<rect id="XMLID_346_" x="275" y="421" class="st11" width="1" height="56.7"/>
				</g>
				<g id="XMLID_224_">
					<rect id="XMLID_345_" x="252.9" y="429.8" class="st11" width="1" height="17"/>
				</g>
				<g id="XMLID_230_">
					<rect id="XMLID_344_" x="252.9" y="458.6" class="st11" width="1" height="31.4"/>
				</g>
				<g id="XMLID_231_">
					<rect id="XMLID_343_" x="229.5" y="426.5" class="st11" width="1" height="51.2"/>
				</g>
				<g id="XMLID_237_">
					<rect id="XMLID_342_" x="229.5" y="490" class="st11" width="1" height="9"/>
				</g>
				<g id="XMLID_241_">
					<rect id="XMLID_341_" x="215" y="433.1" class="st11" width="1" height="19"/>
				</g>
				<g id="XMLID_261_">
					<rect id="XMLID_340_" x="215" y="462.3" class="st11" width="1" height="53.2"/>
				</g>
				<g id="XMLID_265_">
					<rect id="XMLID_338_" x="189.1" y="434.8" class="st11" width="1" height="80.7"/>
				</g>
			</g>
			<polygon id="XMLID_87_" class="st12" points="157.3,439 316,421 355.9,331.9 429.1,263.2 271.3,292.7 189.6,362 			"/>
			<g id="XMLID_139_">
				<polygon id="XMLID_144_" class="st13" points="350,336.6 189.6,362 157.3,439 316,421 354.1,335.9 				"/>
			</g>
			<polygon id="XMLID_90_" class="st11" points="537.5,403.9 506.1,331.9 429.1,263.2 355.9,331.9 316,421 316,606.3 537.5,606.3 
							"/>
			<g id="XMLID_263_">
				<polygon id="XMLID_347_" class="st10" points="455,542 455,586.4 455,608.2 456,608.2 456,586.4 456,542 456,394.1 455,394.1 
									"/>
				<rect id="XMLID_349_" x="430" y="395.1" class="st10" width="1" height="86.7"/>
				<rect id="XMLID_350_" x="407.8" y="396" class="st10" width="1" height="32.6"/>
				<rect id="XMLID_351_" x="407.8" y="449" class="st10" width="1" height="54"/>
				<rect id="XMLID_352_" x="384.5" y="398" class="st10" width="1" height="83.8"/>
				<rect id="XMLID_353_" x="384.5" y="503" class="st10" width="1" height="15.5"/>
				<rect id="XMLID_354_" x="370" y="398" class="st10" width="1" height="39.7"/>
				<rect id="XMLID_355_" x="370" y="455.4" class="st10" width="1" height="91.5"/>
				<rect id="XMLID_356_" x="344" y="399.4" class="st10" width="1" height="147.6"/>
				<rect id="XMLID_357_" x="521.9" y="394.1" class="st10" width="1" height="87.7"/>
				<rect id="XMLID_358_" x="521.9" y="503" class="st10" width="1" height="15.5"/>
				<rect id="XMLID_359_" x="507.4" y="392.1" class="st10" width="1" height="45.7"/>
				<rect id="XMLID_360_" x="507.4" y="455.4" class="st10" width="1" height="91.5"/>
				<rect id="XMLID_361_" x="481.5" y="394.1" class="st10" width="1" height="152.8"/>
				<rect id="XMLID_362_" x="430" y="578" class="st10" width="1" height="29.9"/>
				<rect id="XMLID_363_" x="407.8" y="596.4" class="st10" width="1" height="11.2"/>
				<rect id="XMLID_364_" x="407.8" y="570.7" class="st10" width="1" height="18.6"/>
				<rect id="XMLID_365_" x="384.5" y="578" class="st10" width="1" height="28.9"/>
				<rect id="XMLID_366_" x="384.5" y="565.4" class="st10" width="1" height="5.4"/>
				<rect id="XMLID_367_" x="370" y="593.2" class="st10" width="1" height="13.7"/>
				<rect id="XMLID_368_" x="370" y="555.6" class="st10" width="1" height="31.5"/>
				<rect id="XMLID_369_" x="344" y="555.6" class="st10" width="1" height="50.8"/>
				<rect id="XMLID_370_" x="521.9" y="578" class="st10" width="1" height="30.2"/>
				<rect id="XMLID_371_" x="521.9" y="565.4" class="st10" width="1" height="5.4"/>
				<rect id="XMLID_372_" x="507.4" y="593.2" class="st10" width="1" height="15.7"/>
				<rect id="XMLID_373_" x="507.4" y="555.6" class="st10" width="1" height="31.5"/>
				<rect id="XMLID_374_" x="481.5" y="555.6" class="st10" width="1" height="52.6"/>
			</g>
			<polygon id="XMLID_98_" class="st14" points="286.5,505.1 286.5,612 249.5,612 249.5,527.7 273.2,505.1 			"/>
			<polygon id="XMLID_92_" class="st15" points="157.3,439 160.6,445.2 325.5,427 316,421 			"/>
			<polygon id="XMLID_97_" class="st10" points="249.5,612 144.4,615.8 144.4,547.3 249.5,527.7 			"/>
			<g id="XMLID_150_">
				<polygon id="XMLID_162_" class="st16" points="273.2,505.1 249.5,527.7 249.5,559.3 286.5,523.4 286.5,505.1 				"/>
			</g>
			<polygon id="XMLID_153_" class="st11" points="249.5,527.7 144.4,547.3 144.4,566.3 249.5,559.3 			"/>
			<polygon id="XMLID_93_" class="st17" points="286.5,499 171,510.1 125.4,556.4 242.5,547.3 			"/>
			<polygon id="XMLID_95_" class="st18" points="286.5,499 242.5,547.3 242.5,553.1 286.5,505.1 			"/>
			<polygon id="XMLID_96_" class="st15" points="125.4,556.4 242.5,547.3 242.5,553.1 125.4,562.1 			"/>
			<polygon id="XMLID_99_" class="st18" points="473.3,606.3 404.9,606.3 404.9,465.9 473.3,462.3 			"/>
			<polygon id="XMLID_149_" class="st16" points="467.5,606.3 410.7,606.3 410.7,473.9 467.5,470.5 			"/>
			<polygon id="XMLID_257_" class="st10" points="467.5,470.5 457.5,471.1 457.5,606.3 467.5,606.3 			"/>
			<g id="XMLID_145_">
				<polygon id="XMLID_100_" class="st18" points="391.9,447.8 364.2,449.5 364.2,411.7 391.9,410 				"/>
				<polygon id="XMLID_132_" class="st16" points="389.3,444.4 366.9,445.7 366.9,415.2 389.3,413.8 				"/>
				<polygon id="XMLID_185_" class="st10" points="389.3,413.8 384.9,414.1 384.9,444.6 389.3,444.4 				"/>
			</g>
			<g id="XMLID_267_">
				<polygon id="XMLID_274_" class="st18" points="277.2,574.1 258.8,575.2 258.8,550.2 277.2,549.1 				"/>
				<polygon id="XMLID_271_" class="st16" points="275.4,571.8 260.6,572.7 260.6,552.4 275.4,551.6 				"/>
				<polygon id="XMLID_268_" class="st10" points="275.4,551.6 272.5,551.7 272.5,572 275.4,571.8 				"/>
			</g>
			<g id="XMLID_152_">
				<polygon id="XMLID_184_" class="st18" points="507.8,445.1 480.1,446.7 480.1,408.9 507.8,407.3 				"/>
				<polygon id="XMLID_169_" class="st16" points="505.2,441.6 482.8,443 482.8,412.4 505.2,411 				"/>
				<polygon id="XMLID_154_" class="st10" points="505.2,411 500.8,411.3 500.8,441.9 505.2,441.6 				"/>
			</g>
			<g id="XMLID_193_">
				<polygon id="XMLID_200_" class="st18" points="444.3,347.1 421.9,348.4 421.9,317.9 444.3,316.5 				"/>
				<polygon id="XMLID_197_" class="st16" points="442.2,344.3 424.1,345.4 424.1,320.7 442.2,319.6 				"/>
				<polygon id="XMLID_194_" class="st10" points="442.2,319.6 438.6,319.8 438.6,344.5 442.2,344.3 				"/>
			</g>
			<g id="XMLID_133_">
				<g id="XMLID_178_">
					<g id="XMLID_179_">
						
							<rect id="XMLID_180_" x="426" y="294.7" transform="matrix(3.906130e-002 0.9992 -0.9992 3.906130e-002 809.8154 -46.0093)" class="st16" width="5.7" height="206.7"/>
					</g>
				</g>
			</g>
			<polygon id="XMLID_135_" class="st16" points="509.8,337.5 504.2,332.4 440.9,367.4 359.4,331.1 356.5,337.6 437.5,373.7 
				437.5,398 444.7,398 444.7,373.5 			"/>
			<g id="XMLID_102_">
				
					<rect id="XMLID_103_" x="426" y="292.2" transform="matrix(3.906130e-002 0.9992 -0.9992 3.906130e-002 807.324 -48.4052)" class="st18" width="5.7" height="206.7"/>
			</g>
			<polygon id="XMLID_109_" class="st18" points="507.8,335 501.3,330.4 438.9,365 361,330.2 354.5,335.1 435.5,371.2 435.5,395.5 
				442.7,395.5 442.7,371 			"/>
			<g id="XMLID_91_">
				<linearGradient id="XMLID_711_" gradientUnits="userSpaceOnUse" x1="371.4628" y1="320.5295" x2="456.1295" y2="442.5295">
					<stop  offset="0" style="stop-color:#600707"/>
					<stop  offset="1" style="stop-color:#600707;stop-opacity:0"/>
				</linearGradient>
				<polygon id="XMLID_264_" class="st19" points="325.5,427 418,519.6 537.5,415.7 505,340.2 429.1,275.7 356.5,344.5 				"/>
				<polygon id="XMLID_104_" class="st18" points="325.5,427 310.8,421.6 350,336.6 429,262.5 512,336.6 548,404.9 537.5,415.7 
					500.2,345.1 429.2,281.8 361.8,345.1 				"/>
			</g>
			<g id="XMLID_137_">
				<path id="XMLID_142_" class="st17" d="M271.3,292.7L189.6,362c0,0,134.3-21.8,238.2-98.6L271.3,292.7z"/>
			</g>
			<path id="XMLID_136_" class="st17" d="M350,336.6c0,0-0.6,0.1-1.8,0.4c-1.2,0.2-2.9,0.6-5.1,1c-4.4,0.8-10.6,2.1-18.1,3.4
				c-3.7,0.7-7.8,1.4-12.1,2.2c-4.3,0.7-8.8,1.5-13.5,2.3c-4.7,0.8-9.5,1.6-14.5,2.4c-4.9,0.8-9.9,1.6-15,2.4c-5,0.8-10,1.6-15,2.3
				c-4.9,0.8-9.8,1.5-14.5,2.2c-9.4,1.4-18.2,2.6-25.8,3.6c-7.5,1-13.9,1.7-18.3,2.3c-2.2,0.3-3.9,0.5-5.1,0.6
				c-1.2,0.1-1.8,0.2-1.8,0.2s0.6-0.1,1.8-0.4c1.2-0.2,2.9-0.6,5.1-1c4.4-0.8,10.6-2.1,18.1-3.4c7.5-1.4,16.2-2.9,25.6-4.5
				c4.7-0.8,9.5-1.6,14.5-2.4c4.9-0.8,9.9-1.6,15-2.4c5-0.8,10-1.6,15-2.3c4.9-0.8,9.8-1.5,14.5-2.2c4.7-0.7,9.3-1.3,13.6-1.9
				c4.3-0.6,8.4-1.2,12.2-1.7c7.5-1,13.9-1.7,18.3-2.3c2.2-0.3,3.9-0.5,5.1-0.6C349.4,336.7,350,336.6,350,336.6z"/>
			<g id="XMLID_146_">
				<path id="XMLID_147_" class="st12" d="M242.5,547.3l44-48.3c-48.5,44.5-161.1,57.4-161.1,57.4L242.5,547.3z"/>
			</g>
			<g id="XMLID_199_">
				<g id="XMLID_196_">
					<g id="XMLID_195_">
						<polygon id="XMLID_198_" class="st16" points="367,372.5 366.8,369.5 404.7,368.6 405,371.6 						"/>
					</g>
					<g id="XMLID_148_">
						<polygon id="XMLID_211_" class="st10" points="404.7,368.6 400,368.7 400,371.7 405,371.6 						"/>
					</g>
				</g>
				<g id="XMLID_201_">
					<g id="XMLID_213_">
						<polygon id="XMLID_215_" class="st16" points="367,379.2 366.8,376.2 404.7,375.3 405,378.3 						"/>
					</g>
					<g id="XMLID_202_">
						<polygon id="XMLID_203_" class="st10" points="404.7,375.3 400,375.4 400,378.4 405,378.3 						"/>
					</g>
				</g>
				<g id="XMLID_217_">
					<g id="XMLID_222_">
						<polygon id="XMLID_223_" class="st16" points="367,385.9 366.8,382.9 404.7,382 405,385 						"/>
					</g>
					<g id="XMLID_218_">
						<polygon id="XMLID_219_" class="st10" points="404.7,382 400,382.1 400,385.1 405,385 						"/>
					</g>
				</g>
			</g>
			<g id="XMLID_212_">
				<g id="XMLID_234_">
					<g id="XMLID_239_">
						<polygon id="XMLID_240_" class="st16" points="467.7,369.1 467.5,366.2 503.8,365.4 504,368.2 						"/>
					</g>
					<g id="XMLID_235_">
						<polygon id="XMLID_236_" class="st10" points="503.8,365.4 499.2,365.5 499.2,368.3 504,368.2 						"/>
					</g>
				</g>
				<g id="XMLID_227_">
					<g id="XMLID_232_">
						<polygon id="XMLID_233_" class="st16" points="467.7,375.4 467.5,372.6 503.8,371.7 504,374.6 						"/>
					</g>
					<g id="XMLID_228_">
						<polygon id="XMLID_229_" class="st10" points="503.8,371.7 499.2,371.8 499.2,374.7 504,374.6 						"/>
					</g>
				</g>
				<g id="XMLID_214_">
					<g id="XMLID_225_">
						<polygon id="XMLID_226_" class="st16" points="467.7,381.8 467.5,379 503.8,378.1 504,381 						"/>
					</g>
					<g id="XMLID_216_">
						<polygon id="XMLID_220_" class="st10" points="503.8,378.1 499.2,378.2 499.2,381.1 504,381 						"/>
					</g>
				</g>
			</g>
			<polygon id="XMLID_266_" class="st20" points="286.5,499 316,547.3 345,606.4 316,606.4 286.5,606.4 			"/>
		</g>
		<path id="XMLID_123_" class="st3" d="M1071.9,579.8c53.2-35.1,122.1-88.7,188.3-57.2c14.4-33.8,31.7-66.4,64.5-85.6
			c7.7-4.5,17.2-1.9,23.9-6c16.8-10.4,20.4-33.2,44.5-36.9c35.2-5.5,29.2,24.4,49.3,35.8c8.5,4.8,25.7-2.9,35.4,0.4
			c19.7,6.6,17.7,14.5,28.7,29c11.3,15,28.4,25.8,39.1,42.4c16.1,24.9,18.2,71.7,15.5,100.6c-7.3,79.6-148.6,14.4-198.1,9.2
			c-74.1-7.9-149.1-4.8-223.1-10.9C1113.4,598.4,1078.3,600.2,1071.9,579.8z"/>
		<path id="XMLID_334_" class="st21" d="M0,636.6V980h1400V581.6C934.1,529.5,460.4,548,0,636.6z"/>
		<g id="XMLID_335_">
			<path id="XMLID_375_" class="st22" d="M0,760.8V980h1400V660C932.6,603.7,454.4,638,0,760.8z"/>
		</g>
		<g id="XMLID_336_">
			<g id="XMLID_623_">
				<path id="XMLID_775_" class="st23" d="M-33.6,643.5v14.1C791.5,701.8,848,751.5,848,751.5l7.4-3.4
					C665.4,681.5-33.6,643.5-33.6,643.5z"/>
				<g id="XMLID_625_">
					<g id="XMLID_978_">
						<path id="XMLID_1010_" class="st24" d="M813.8,788.7c2.4-17.7,8.2-53.4,8.2-53.4l-11.1-0.9c-1.3,17.4-2.9,34.7-4.2,52
							C808.9,788.2,811.1,789.1,813.8,788.7z"/>
						<path id="XMLID_1009_" class="st24" d="M800,781.3c2.4-17.7,8.2-53.4,8.2-53.4l-11.1-0.9c-1.3,17.4-2.9,34.7-4.2,52
							C795.2,780.7,797.4,781.6,800,781.3z"/>
						<path id="XMLID_1008_" class="st24" d="M779.9,776c2.4-17.7,8.2-53.4,8.2-53.4l-11.1-0.9c-1.3,17.4-2.9,34.7-4.2,52
							C775,775.5,777.2,776.4,779.9,776z"/>
						<path id="XMLID_1007_" class="st24" d="M756.3,766.6c2.4-17.7,8.2-53.4,8.2-53.4l-11.1-0.9c-1.3,17.4-2.9,34.7-4.2,52
							C751.4,766.1,753.6,767,756.3,766.6z"/>
						<path id="XMLID_1006_" class="st24" d="M742.5,764.7c-0.2-17.8,0.3-53.9,0.3-53.9l-11.1,0.7c1.3,17.3,2.2,34.6,3.5,51.9
							C737.5,764.9,739.9,765.4,742.5,764.7z"/>
						<path id="XMLID_1005_" class="st24" d="M722.8,755.5c1.9-17.8,6.5-53.6,6.5-53.6l-11.1-0.6c-0.7,17.4-1.8,34.7-2.6,52.1
							C717.9,755.2,720.1,756,722.8,755.5z"/>
						<path id="XMLID_1004_" class="st24" d="M702.4,755.5c1.9-17.8,6.5-53.6,6.5-53.6l-11.1-0.6c-0.7,17.4-1.8,34.7-2.6,52.1
							C697.5,755.1,699.7,756,702.4,755.5z"/>
						<path id="XMLID_1003_" class="st24" d="M688.3,765.6c-0.5-17.8-0.7-53.9-0.7-53.9l-11.1,0.9c1.6,17.3,2.8,34.6,4.4,51.8
							C683.4,765.9,685.7,766.4,688.3,765.6z"/>
						<path id="XMLID_1002_" class="st24" d="M633.1,746.3c-0.5-17.8-0.7-53.9-0.7-53.9l-11.1,0.9c1.6,17.3,2.8,34.6,4.4,51.8
							C628.2,746.5,630.5,747.1,633.1,746.3z"/>
						<path id="XMLID_1001_" class="st24" d="M670.3,751.5c-0.5-17.8-0.7-53.9-0.7-53.9l-11.1,0.9c1.6,17.3,2.8,34.6,4.4,51.8
							C665.4,751.8,667.7,752.3,670.3,751.5z"/>
						<path id="XMLID_1000_" class="st24" d="M646,738c1.8-17.8,6.3-53.6,6.3-53.6l-11.1-0.5c-0.7,17.4-1.7,34.7-2.4,52.1
							C641.1,737.6,643.3,738.4,646,738z"/>
						<path id="XMLID_999_" class="st24" d="M589.4,736.7c1.8-17.8,6.3-53.6,6.3-53.6l-11.1-0.5c-0.7,17.4-1.7,34.7-2.4,52.1
							C584.5,736.4,586.8,737.2,589.4,736.7z"/>
						<path id="XMLID_998_" class="st24" d="M611.4,736.3c1.8-17.8,6.3-53.6,6.3-53.6l-11.1-0.5c-0.7,17.4-1.7,34.7-2.4,52.1
							C606.5,735.9,608.7,736.7,611.4,736.3z"/>
						<path id="XMLID_997_" class="st24" d="M566.5,734c0.1-17.8,1.3-53.9,1.3-53.9l-11.2,0.5c1,17.3,1.5,34.7,2.5,52
							C561.6,734.1,563.9,734.7,566.5,734z"/>
						<path id="XMLID_996_" class="st24" d="M548.9,739.3c0.2-23,1.6-69.5,1.6-69.5l-14.4,0.6c1.2,22.3,2,44.7,3.2,67
							C542.6,739.4,545.5,740.2,548.9,739.3z"/>
						<path id="XMLID_995_" class="st24" d="M528.3,732.3c0.2-23,1.6-69.5,1.6-69.5l-14.4,0.6c1.2,22.3,2,44.7,3.2,67
							C522,732.4,524.9,733.2,528.3,732.3z"/>
						<path id="XMLID_994_" class="st24" d="M502.8,736.5c-0.7-23-0.8-69.5-0.8-69.5l-14.4,1.1c2,22.3,3.6,44.6,5.6,66.8
							C496.4,736.9,499.4,737.6,502.8,736.5z"/>
						<path id="XMLID_993_" class="st24" d="M452.6,730.6c-0.9-29.9-1-90.5-1-90.5l-18.7,1.5c2.6,29,4.7,58,7.3,87
							C444.3,731,448.2,731.9,452.6,730.6z"/>
						<path id="XMLID_992_" class="st24" d="M227.1,734c-0.9-29.9-1-90.5-1-90.5l-18.7,1.5c2.6,29,4.7,58,7.3,87
							C218.8,734.4,222.7,735.3,227.1,734z"/>
						<path id="XMLID_991_" class="st24" d="M201.4,722.5c-0.9-29.9-1-90.5-1-90.5l-18.7,1.5c2.6,29,4.7,58,7.3,87
							C193.1,722.9,197,723.8,201.4,722.5z"/>
						<path id="XMLID_990_" class="st24" d="M173,723.1c-0.9-29.9-1-90.5-1-90.5l-18.7,1.5c2.6,29,4.7,58,7.3,87
							C164.8,723.5,168.7,724.4,173,723.1z"/>
						<path id="XMLID_989_" class="st24" d="M91.6,724.7c-0.9-29.9-1-90.5-1-90.5l-18.7,1.5c2.6,29,4.7,58,7.3,87
							C83.3,725.2,87.2,726,91.6,724.7z"/>
						<path id="XMLID_988_" class="st24" d="M138,723.8c-0.9-29.9-1-90.5-1-90.5l-18.7,1.5c2.6,29,4.7,58,7.3,87
							C129.8,724.2,133.7,725.1,138,723.8z"/>
						<path id="XMLID_987_" class="st24" d="M56.6,724c-0.9-29.9-1-90.5-1-90.5l-18.7,1.5c2.6,29,4.7,58,7.3,87
							C48.3,724.5,52.2,725.4,56.6,724z"/>
						<path id="XMLID_986_" class="st24" d="M319,729.1c-0.9-29.9-1-90.5-1-90.5l-18.7,1.5c2.6,29,4.7,58,7.3,87
							C310.7,729.6,314.7,730.4,319,729.1z"/>
						<path id="XMLID_985_" class="st24" d="M289.7,723.8c-0.9-29.9-1-90.5-1-90.5l-18.7,1.5c2.6,29,4.7,58,7.3,87
							C281.4,724.2,285.4,725.1,289.7,723.8z"/>
						<path id="XMLID_984_" class="st24" d="M421.2,739.6c-0.9-29.9-1-90.5-1-90.5l-18.7,1.5c2.6,29,4.7,58,7.3,87
							C412.9,740.1,416.8,740.9,421.2,739.6z"/>
						<path id="XMLID_983_" class="st24" d="M375.9,741.1c5.9-29.5,19.2-88.8,19.2-88.8l-18.5-2.7c-3.9,29-8.5,57.9-12.4,86.9
							C367.8,739.7,371.4,741.4,375.9,741.1z"/>
						<path id="XMLID_982_" class="st24" d="M-4.7,720.6c5.9-29.5,19.2-88.8,19.2-88.8L-4,629.1c-3.9,29-8.5,57.9-12.4,86.9
							C-12.8,719.2-9.2,720.9-4.7,720.6z"/>
						<path id="XMLID_981_" class="st24" d="M244.5,735.6c5.9-29.5,19.2-88.8,19.2-88.8l-18.5-2.7c-3.9,29-8.5,57.9-12.4,86.9
							C236.4,734.2,240,735.9,244.5,735.6z"/>
						<path id="XMLID_980_" class="st24" d="M348.3,735.6c5.9-29.5,19.2-88.8,19.2-88.8l-18.5-2.7c-3.9,29-8.5,57.9-12.4,86.9
							C340.2,734.2,343.7,735.9,348.3,735.6z"/>
						<path id="XMLID_979_" class="st24" d="M467.5,733.1c3.7-22.8,12.4-68.6,12.4-68.6l-14.3-1.6c-2.3,22.3-5,44.6-7.2,66.9
							C461.3,732.3,464.1,733.5,467.5,733.1z"/>
					</g>
				</g>
			</g>
			<path id="XMLID_339_" class="st25" d="M1324.1,879.4C899.8,734.8,447.5,673.1,0,698.5V980h1400v-73.4
				C1374.3,896.9,1348.8,887.8,1324.1,879.4z"/>
		</g>
		<g id="XMLID_331_">
			<path id="XMLID_332_" class="st26" d="M0,855.6V980h1400V756.7C931.7,725.6,459.2,759,0,855.6z"/>
			<g id="XMLID_106_">
				<g id="XMLID_337_">
					<path id="XMLID_377_" class="st27" d="M1400,756.7c-263.7-17.5-528.7-14.5-791.9,8.6c-103.5,18.3-219.9,40.5-297.2,54.8
						c-30.6,5.7,127.5,9.4,127.8,9.4c-80.4,20.2-251.9,35.5-315.2,92.4c10.5,18.6,145,27.5,189.2,29.3c63,2.6,152-15.6,210.3,3
						c-66.2,3.9-132.7,10.2-195.4,25.8H1400V756.7z"/>
				</g>
				<g id="XMLID_333_">
					<g id="XMLID_393_">
						<g id="XMLID_447_">
							<g id="XMLID_452_">
								<path id="XMLID_453_" class="st28" d="M444.8,833.4l-5-4.2c-80.4,20.2-251.9,35.5-315.2,92.4c0.2,0.3,0.4,0.6,0.7,1
									c20.6-11.6,48.9-26,79.6-37C265.7,863.8,444.8,833.4,444.8,833.4z"/>
							</g>
							<g id="XMLID_450_">
								<path id="XMLID_451_" class="st28" d="M609.2,765c-103.5,18.3-219.9,40.5-297.2,54.8c-3.3,0.6-4.4,1.2-3.7,1.8h0
									C308.3,821.6,532.7,785.3,609.2,765z"/>
							</g>
							<g id="XMLID_448_">
								<path id="XMLID_449_" class="st28" d="M524.1,953.9c-66.2,3.9-132.7,10.2-195.4,25.8h34.8c87.5-18.1,160.6-19.7,160.6-19.7
									V953.9z"/>
							</g>
						</g>
					</g>
				</g>
			</g>
			<path id="XMLID_420_" class="st29" d="M498.2,854.2c0,0,32.1,16.4,111,6.9l-28.3,10.5c0,0,30.4,22.7,177.4,22.7
				c0,0,3.5,17.9,101,17.9s193.2-13.7,254.4-49.5c0,0,141.6,25.9,201.9-25.9c0,0,58.5,12.5,100.9-13.7L1264,740.6l-616,68.9
				l-94,34.8L498.2,854.2z"/>
			<path id="XMLID_432_" class="st29" d="M364.2,895.3c0,0-17.8,4.9-39.8,4.9c-22,0-39.8-4.9-39.8-4.9s17.8-4.9,39.8-4.9
				C346.4,890.4,364.2,895.3,364.2,895.3z"/>
			<path id="XMLID_433_" class="st29" d="M407.8,917.4c0,0-8.5,5.2-18.9,5.2s-18.9-5.2-18.9-5.2s8.5-5.2,18.9-5.2
				S407.8,917.4,407.8,917.4z"/>
			<path id="XMLID_434_" class="st29" d="M440.4,860c0,0-8.5,4.9-19,4.9c-10.5,0-19-4.9-19-4.9s8.5-4.9,19-4.9
				C431.9,855.1,440.4,860,440.4,860z"/>
			<path id="XMLID_435_" class="st29" d="M521.9,819.2c0,0-13.3,3.9-29.7,3.9s-29.7-3.9-29.7-3.9s13.3-3.9,29.7-3.9
				S521.9,819.2,521.9,819.2z"/>
			<path id="XMLID_444_" class="st29" d="M532.2,904.9c0,0-13.2,3.2-29.4,3.2c-16.3,0-29.4-3.2-29.4-3.2s13.2-3.2,29.4-3.2
				C519,901.7,532.2,904.9,532.2,904.9z"/>
			<path id="XMLID_455_" class="st29" d="M672,947.8c0,0-18.9,6.2-42.3,6.2s-42.3-6.2-42.3-6.2s18.9-6.2,42.3-6.2
				S672,947.8,672,947.8z"/>
			<path id="XMLID_456_" class="st29" d="M1374.1,944.5c0,0-39.8,15.1-88.9,15.1c-49.1,0-88.9-15.1-88.9-15.1s39.8-15.1,88.9-15.1
				C1334.3,929.4,1374.1,944.5,1374.1,944.5z"/>
			<path id="XMLID_457_" class="st29" d="M1394.1,913.7c0,0-13.7,8.8-30.6,8.8s-30.6-8.8-30.6-8.8s13.7-8.8,30.6-8.8
				S1394.1,913.7,1394.1,913.7z"/>
			<path id="XMLID_459_" class="st29" d="M1113.8,949.2c0,0-9.4,4.7-21,4.7c-11.6,0-21-4.7-21-4.7s9.4-4.7,21-4.7
				C1104.4,944.5,1113.8,949.2,1113.8,949.2z"/>
			<path id="XMLID_461_" class="st29" d="M1189.3,918.6c0,0-9.9,4-22.2,4c-12.2,0-22.2-4-22.2-4s9.9-4,22.2-4
				C1179.4,914.6,1189.3,918.6,1189.3,918.6z"/>
		</g>
		<g id="XMLID_101_">
			<path id="XMLID_72_" class="st7" d="M1287.1,814.6c7.1,4.3,14.2,8.6,21.3,12.8c3.6,2.2,7.6,5.2,7.3,9.3c-0.2,3.4-3.3,5.7-6.1,7.5
				c-13.2,8.4-28,14.1-43.4,16.8c-17.2,3-34.8,2.1-52.2,1.1c-34.3-1.9-69.7-4.6-104-6.9c-44.8,23.8-95.5,34.3-145.9,39.9
				c-65.1,7.3-131.3,7-195.7-4.9c-2.7-0.5-5.7-1.1-7.5-3.2c-1.8-2.1-2.7-5.4-0.1-6.3c-47.9,1.1-95.9,2.1-143.7-1.1
				c-12.4-0.8-25.3-2.1-36.1-8.3c-1.3-0.8-2.7-1.8-3-3.3c-0.2-1.2,0.4-2.4,1-3.4c3.5-5.6,9.1-8.3,15.2-10.7h-96
				c21.9-23.4,59.6-34.5,89.8-23.7c-6.1-1.2-13.2-3.3-15-9.2c-2.2-7.2,5.1-13.6,12-16.7c6-2.7,11-6.8,17.5-5.8
				c-4.6-3.4-5.6-10.3-3.6-15.7s6.2-9.7,10.5-13.5c31.2-27.8,73.6-43.2,115.4-40.6c-14.5-6.5-24-16.2-31-30.4
				c16.6,0.8,32.6,7.6,43.1,20.5c-3.6-11.8-8.8-20.9-13.5-32.3c7.6,10.2,16.5,20.7,24.1,30.9c-2.6-14.9-5.4-28.5-7.9-43.4
				c5.4,15.7,11.8,29.7,18.8,44.7c1.8-19,10.5-37.2,24.3-50.4s32.3-21.2,51.3-22.2c5.1-0.3,10.6-1.8,15.1,0.5
				c-2.2-10.6-4.2-21.5-3.7-32.3c7.3,10.5,17,20.6,24.3,31.1c0-13.6-1.5-26-6.9-38.5c6.3,8.9,16.9,17.3,25.5,24
				c-5-8.7-3.1-15.9-8.1-24.6c21.2-12.6,45.2-20.5,69.8-23c-15.5-10.7-33.5-17.9-52.2-20.7c37.3-2.6,75,0.2,111.4,8.4
				c29.5-28.3,74.3-37.7,115.2-39.4c20.2-0.8,40.7,0.4,59.7,7.3c19,6.8,36.4,19.7,45.6,37.6c14.5-15.9,40.6-19.7,59-8.6
				c18.5,11.1,27.3,35.9,20.1,56.1c11-12.6,22.3-20.2,36.3-29.2c-11.2,14.3-21.4,29.4-30.4,45.1c12.8-3.1,25.4-5.9,38.6-6.2
				c9.3-0.2,18.9,0.4,27,4.9c9.9,5.5,16.2,16.3,18.1,27.4c1.6,9.4-0.3,20.4-8.3,25.5c16.2-1.5,31.4-0.1,47,4.4
				c-12.3,4.2-24.6,8.4-36.9,12.5c21.4,2.6,41.5,14.3,54.1,31.7s17.7,40.1,13.5,61.3c-1.7,8.8-5.4,17.9-12.7,23
				c-4.9,3.5-11,4.8-17,5.8C1384.8,839.4,1338.7,830.5,1287.1,814.6z"/>
			<g id="XMLID_379_">
				<path id="XMLID_382_" class="st7" d="M580.2,828.3c2.5,1,5.2,1.7,7.7,2.2C585.4,829.6,582.8,828.9,580.2,828.3z"/>
				<path id="XMLID_385_" class="st8" d="M1454.2,740.6c-12.7-17.4-32.8-29.2-54.1-31.7c12.3-4.2,24.6-8.4,36.9-12.5
					c-15.7-4.5-30.8-6-47-4.4c8-5.1,9.9-16.2,8.3-25.5c-1.9-11.2-8.2-22-18.1-27.4c-8.1-4.5-17.8-5.1-27-4.9
					c-13.2,0.3-25.8,3.1-38.6,6.2c9-15.8,19.2-30.9,30.4-45.1c-14,9-25.3,16.7-36.3,29.2c7.2-20.3-1.7-45.1-20.1-56.1
					c-18.5-11.1-44.5-7.3-59,8.6c-9.2-18-26.6-30.8-45.6-37.6c-19-6.8-39.5-8.1-59.7-7.3c-32.6,1.4-67.7,7.7-95.6,24.5
					c33.9,20.1,67.6,80.8,63.8,110.1c-25.6-9.2-46.8-32.7-75.9-39.1c18.2,14.4,37.2,36.9,40,60.1c-15.8-4.6-31.4-16.8-49.8-17.9
					c20.5,19.5,31.7,50.7,31.7,78.1c-21.8-17.2-66.5-59.5-100.2-47.5c-42.9,15.2-10.7,63.9,12.7,84c-20.3-2.8-39.3-13.4-59.2-18
					c10.8,11.2,26,23.8,29.8,38.4c-27.5-1.8-93.7-29.7-93.1,18.1c-14.1-4.4-29-8-43.9-9.1c10.2,7.6,21.1,14.3,31.4,21.7
					c-33.6-3.2-61.9,11.4-92.2,21.5c-27.8,9.3-57.8,17.4-89.1,24.3c42,2,84.2,1,126.2,0.1c-2.6,0.9-1.7,4.2,0.1,6.3s4.8,2.7,7.5,3.2
					c64.4,11.9,130.6,12.2,195.7,4.9c50.4-5.6,101.1-16.1,145.9-39.9c34.3,2.3,69.7,5,104,6.9c17.4,0.9,35,1.8,52.2-1.1
					c15.4-2.7,30.2-8.4,43.4-16.8c2.8-1.8,5.9-4.2,6.1-7.5c0.3-4.2-3.7-7.2-7.3-9.3c-7.1-4.3-14.2-8.6-21.3-12.8
					c51.6,15.8,97.7,24.8,151,16c5.9-1,12-2.3,17-5.8c7.4-5.2,11-14.2,12.7-23C1471.9,780.8,1466.9,758,1454.2,740.6z"/>
			</g>
			<path id="XMLID_73_" class="st8" d="M623.6,851.1c26.3-12.5,57.3-14.7,85.1-6c-5.4-5.7-10.5-16.6-11.2-24.4
				c-0.7-7.8,7.1-16.4,14.3-13.4c5.7,2.4,7.2,9.8,6.8,16s-1.7,12.9,1.3,18.3c1.3-8.9,5-17.4,10.6-24.5c0.8,8.4-0.6,16.9-3.9,24.6
				c6.9-12.1,18.2-21.6,31.3-26.4c-6.1,8.6-12.2,17.1-18.4,25.7c13.5-4.1,27.7-6,41.8-5.4c3.7,0.1,7.7,0.6,10.2,3.4
				c2.5,2.7,1.4,8.3-2.2,8.6c22-1.8,44.3-0.1,65.9,4.9C856.7,852.7,623.6,851.1,623.6,851.1z"/>
			<path id="XMLID_74_" class="st7" d="M776.2,877.3c7.1-4.3,14.6-8.4,22.7-10.2c8.1-1.9,17.1-1.3,24.2,3.2
				c3.4-4.6,8.6-7.9,14.3-8.9c2.9-0.5,6-0.5,8.4,1.2c2.4,1.6,3.7,5.2,2.1,7.6c16.7-6.2,36.3-3.8,50.9,6.3L776.2,877.3z"/>
			<path id="XMLID_75_" class="st9" d="M662.7,796.5c-3.7-1.9-7.3-6.5-11.3-8.8c-6.2-3.6-12.7-7-19.5-9.3
				c-7.3-2.5-26.4-7.1-30.2,3.2C621.9,784,644.6,787.3,662.7,796.5z"/>
			<path id="XMLID_76_" class="st9" d="M882.5,764.9c-12.2-36.5-42.7-66.4-79.5-77.7C832.1,709.9,859.6,736.1,882.5,764.9z"/>
			<path id="XMLID_108_" class="st7" d="M1182.3,711.9c-12.2-36.5-42.7-66.4-79.5-77.7C1131.8,656.9,1159.3,683.1,1182.3,711.9z"/>
			<path id="XMLID_376_" class="st7" d="M1193.3,688.3c-12.2-36.5-42.7-66.4-79.5-77.7C1142.9,633.3,1170.4,659.5,1193.3,688.3z"/>
			<path id="XMLID_110_" class="st7" d="M1155.8,721.4c-20.1-19.9-50.1-29.4-78-24.7C1104.4,702,1131.1,710.1,1155.8,721.4z"/>
			<path id="XMLID_77_" class="st9" d="M855.6,749.3c-34.2-22.3-82.5-20.5-115,4.4C776.7,743.4,819.1,740.9,855.6,749.3z"/>
			<path id="XMLID_78_" class="st9" d="M820.9,796.9c-25.4-13.8-56.7-16.1-83.9-6.3C764.2,790.4,793.9,793.1,820.9,796.9z"/>
			<path id="XMLID_79_" class="st9" d="M961.4,621.9c-3.3-10-9.3-19.5-18.4-24.8c-3.3-1.9-7-3.2-10.2-5.3
				c14.4,9.2,29.4,31,32.2,47.8C964.4,633.6,963.3,627.6,961.4,621.9z"/>
			<path id="XMLID_80_" class="st9" d="M859.4,671.4c-14.8-31.3-29.9-63-52.3-89.5c-2.3-2.7-4.7-5.4-7.7-7.1
				c-8.3-4.8-18.7-1.8-27.8,1.3c11,1.2,20.6,9.7,28.9,17C826.2,616,845.2,640.1,859.4,671.4z"/>
			<path id="XMLID_81_" class="st9" d="M691.5,748.9c-17-8.9-31.8-21.7-49.1-30.1c-17.3-8.3-39.1-11.4-55-0.7
				C623.6,720.8,660,730.8,691.5,748.9z"/>
			<path id="XMLID_82_" class="st7" d="M1298.9,784.7c8-7.9,17.4-14.5,27.7-19.1c6.8-3.1,14.4-5.4,21.7-3.9
				c7.3,1.5,14.1,8,13.6,15.5c8.1-5.6,17.2-9.5,26.8-11.6c4.9-1.1,10.5-1.5,14.7,1.4c7.1,5,5.5,15.8,2.9,24.1
				c20.6-13.3,49-13.3,69.7,0h-208C1275.1,785.5,1290,782.6,1298.9,784.7z"/>
			<path id="XMLID_422_" class="st7" d="M885.6,894.4c8-7.9,17.4-14.5,27.7-19.1c6.8-3.1,14.4-5.4,21.7-3.9
				c7.3,1.5,14.1,8,13.6,15.5c8.1-5.6,17.2-9.5,26.8-11.6c4.9-1.1,10.5-1.5,14.7,1.4c7.1,5,5.5,15.8,2.9,24.1
				c20.6-13.3,49-13.3,69.7,0h-208C861.8,895.1,876.7,892.2,885.6,894.4z"/>
			<path id="XMLID_83_" class="st8" d="M749.5,894.3c0,0-17.5,6-39.2,6s-39.2-6-39.2-6s17.5-6,39.2-6S749.5,894.3,749.5,894.3z"/>
			<path id="XMLID_88_" class="st8" d="M1411.1,848.2c0,0-17.5,6-39.2,6c-21.6,0-39.2-6-39.2-6s17.5-6,39.2-6
				C1393.6,842.2,1411.1,848.2,1411.1,848.2z"/>
			<path id="XMLID_89_" class="st8" d="M1349.5,864.9c0,0-12.5,4.3-27.9,4.3c-15.4,0-27.9-4.3-27.9-4.3s12.5-4.3,27.9-4.3
				C1337,860.6,1349.5,864.9,1349.5,864.9z"/>
			<path id="XMLID_84_" class="st7" d="M587.4,881.5c0,0-10.2,4.3-22.7,4.3c-12.6,0-22.7-4.3-22.7-4.3s10.2-4.3,22.7-4.3
				C577.2,877.3,587.4,881.5,587.4,881.5z"/>
			<path id="XMLID_85_" class="st8" d="M662.7,908.1c0,0-16.8,6.5-37.6,6.5c-20.8,0-37.6-6.5-37.6-6.5s16.8-6.5,37.6-6.5
				C645.8,901.7,662.7,908.1,662.7,908.1z"/>
			<path id="XMLID_86_" class="st7" d="M523.9,866.4c0,0-16.3,5.4-36.4,5.4s-36.4-5.4-36.4-5.4s16.3-5.4,36.4-5.4
				S523.9,866.4,523.9,866.4z"/>
			<path id="XMLID_107_" class="st7" d="M1331.6,659.6c8.9-36.8,44.3-78.8,85-78C1393,587.8,1338.3,649.5,1331.6,659.6z"/>
			<path id="XMLID_419_" class="st7" d="M1289.6,725.6c18.1-22.3,75.2-67,104.5-38.9C1357.6,688.7,1318,713.2,1289.6,725.6z"/>
		</g>
		<linearGradient id="XMLID_712_" gradientUnits="userSpaceOnUse" x1="863.4359" y1="338.7641" x2="883.7418" y2="338.7641">
			<stop  offset="0" style="stop-color:#F7A89B"/>
			<stop  offset="0.3284" style="stop-color:#F7A599"/>
			<stop  offset="0.533" style="stop-color:#F79D92"/>
			<stop  offset="0.7036" style="stop-color:#F68E86"/>
			<stop  offset="0.8547" style="stop-color:#F57A76"/>
			<stop  offset="0.9932" style="stop-color:#F46060"/>
			<stop  offset="1" style="stop-color:#F45E5F"/>
		</linearGradient>
		<path id="XMLID_51_" class="st30" d="M875.1,322.3c-7.2-6.3-11.3,6.1-11.6,11c-0.4,8,1,20.3,10.4,23
			C892.9,361.7,879.4,328.7,875.1,322.3z"/>
		<g id="XMLID_615_">
			<path id="XMLID_614_" class="st29" d="M1090.8,931.1c0,0-25.1,10.4-56.1,10.4c-31,0-56.1-10.4-56.1-10.4s25.1-10.4,56.1-10.4
				C1065.7,920.7,1090.8,931.1,1090.8,931.1z"/>
			<path id="XMLID_618_" class="st29" d="M953.8,931.4c0,0-11.1,4.6-24.8,4.6s-24.8-4.6-24.8-4.6s11.1-4.6,24.8-4.6
				S953.8,931.4,953.8,931.4z"/>
			<g id="XMLID_610_">
				<g id="XMLID_70_">
					<path id="XMLID_62_" class="st9" d="M960.8,881.3c1.4,14.6,19.9,21.9,25.7,7.7c0.9-2.3,0.4-4.9-0.7-7c-1-2.1-2.6-3.9-3.7-6
						c-3.4-6.5,0.8-22.6-4.3-26.6C970.9,843.7,958.7,858.3,960.8,881.3z"/>
					<path id="XMLID_71_" class="st9" d="M1016.3,889.9c1.4,3.4,1.2,7.3,0.1,10.8c-1.2,3.5-3.4,7-5.8,9.7
						c-0.8,6.4-2.1,12.7-2.8,19.1c-0.8-5.8-2-11.7-2-17.5c0-1.2-7.1-7.6-8.1-9.4c-2.1-3.7-2.9-7.3-0.1-11.1
						C1000.8,887,1013.1,882.2,1016.3,889.9z"/>
					<path id="XMLID_60_" class="st31" d="M1070.5,876.9c-6.4,16.1-20.1,29-36.5,34.5c-17.1,5.7-40.1,4.1-53.8-8.5
						c-11.2-10.4-16-28.4-13.8-43.3c1.4-9.3,6.3-17.6,11.2-25.7c2.5-4.2,7.6-3.8,12.5-4.5c26.4-4.2,54.5,4.6,73.9,22.9
						c5.2-6.6,6.3-14.7,4.3-22.9c4.7,3,7.9,8.1,9.1,13.6c1.2,5.5,0.3,11.3-1.9,16.4c2.4-2,4.8-4.8,5.5-7.8c1.9,5.1,0.2,11.3-4,14.8
						c2.2-1.7,5.7,0.5,5.9,3.2s-2.1,5.2-4.8,6.1C1075.3,876.6,1073.2,877.2,1070.5,876.9z"/>
					<path id="XMLID_498_" class="st9" d="M1070.5,876.9c2.7,0.3,4.8-0.3,7.4-1.2c2.6-0.9,4.9-3.3,4.8-6.1c-0.2-2.8-3.7-4.9-5.9-3.2
						c4.2-3.5,5.8-9.7,4-14.8c-0.6,3.1-3,5.8-5.5,7.8c2.3-5.1,3.1-10.9,1.9-16.4c-1.2-5.5-4.4-10.6-9.1-13.6
						c2,8.2,0.8,16.3-4.3,22.9c-13-12.4-30-20.3-47.8-23c-8.1,25.3,3.9,54.6,27,69.7c2.4,1.5,4.8,2.8,7.4,3.8
						C1059.2,896.2,1066.4,887.2,1070.5,876.9z"/>
					<path id="XMLID_59_" class="st9" d="M1019.9,828.3c-4.7-16.7-3.1-36.7-4.5-53.9c-1.3-15.9-3.5-32.2-8.4-47.4
						c-2.4-7.6-4.9-17.1-12.7-20.3c-7.2-3-14-2.2-21-0.2c-20.9,6.2-24.5,31.7-21.6,50.4c2.6,16.6,6.5,32,10.7,48.2
						c2,7.9,4.1,15.9,5.9,23.8c0.9,3.9,3,9.9,1.2,13.2c0.4,9.5,14.3,11,21.4,10c7.1-1.1,13.4-5.8,18.3-10.8
						C1012.7,837.6,1016.5,831.5,1019.9,828.3z"/>
					<path id="XMLID_468_" class="st32" d="M1015.4,774.4c-1.3-15.9-3.5-32.2-8.4-47.4c-2.4-7.6-4.9-17.1-12.7-20.3
						c-3.6-1.5-7.1-2.1-10.6-2c10.7,8.7,15.9,26.5,19.3,39.3c6,24,11,47,6,72c-2.6,14.6-9.3,26.6-18.5,36c0.2,0,0.3,0,0.5-0.1
						c7.1-1.1,13.4-5.8,18.3-10.8c3.4-3.5,7.2-9.7,10.6-12.8C1015.2,811.6,1016.8,791.7,1015.4,774.4z"/>
					<path id="XMLID_61_" class="st33" d="M1021,844.4c-2.8,4.3-3.9,9.6-3.8,14.7c0.1,7.3,2.5,14.7,7.3,20.3
						c4.8,5.6,12,9.1,19.3,8.9c3.7-0.1,7.6-1.3,9.8-4.3c2.2-3,1.8-7.9-1.5-9.7c2.3,0,4.3-1.5,6.3-2.6c2-1.1,3.6-3.4,3.3-5.7
						c-0.4-2.8-3.1-4.6-5.6-5.9C1046.1,854.5,1031.5,849.1,1021,844.4z"/>
					<path id="XMLID_462_" class="st11" d="M975.3,825c-1.7,5.7-3.7,16.2,1,21c4.7,4.8,5.3-0.9,6.3-4.4c0.5,6.3,7.4,5.5,7.3-0.5
						c-0.1-7.8-7.1-19.8-13.3-23.8C976.1,819.5,974.4,823.1,975.3,825z"/>
					<path id="XMLID_63_" class="st10" d="M958.2,699.8c-4.3-4.3-7.3-9.7-10.2-15.1c-2.5,5.2-2.9,11.5-1,16.9
						c-5.3-2.8-9.2-8.3-10-14.3c-0.8-6,1.5-12.3,5.9-16.4c-12.4,0-22.9,12.1-22.5,24.5s10.3,23.3,22.3,26.3c-3.4-0.3-6.7-0.7-10.1-1
						c-1.1-0.1-2.3-0.2-3.3,0.3c-2.4,1.1-2.2,4.8-0.4,6.6s4.7,2.1,7.3,2.2c17.3,0.4,38-8.8,46.6-24.5
						C973,704.4,966.8,708.3,958.2,699.8z"/>
					<path id="XMLID_64_" class="st10" d="M958.7,831.9c7.9,0.5,15.8,0,23.6-1.3c0.5-0.1,1-0.2,1.3-0.6c0.3-0.4,0.3-1,0.2-1.6
						c-1.1-7.4-1.3-17.1-11.2-13.3C969.4,816.4,957.9,831.8,958.7,831.9z"/>
					<ellipse id="XMLID_65_" class="st16" cx="992.5" cy="800.4" rx="3.6" ry="7.4"/>
					
						<ellipse id="XMLID_67_" transform="matrix(0.9814 -0.1921 0.1921 0.9814 -136.351 201.291)" class="st16" cx="969.9" cy="803.8" rx="2.8" ry="5.8"/>
					<path id="XMLID_66_" class="st29" d="M979.6,773.4c0,0,0-0.3,0.1-0.8c0-0.3,0.1-0.6,0.1-0.9c0.1-0.4,0.2-0.8,0.3-1.2
						c0.1-0.2,0.1-0.5,0.2-0.7c0.1-0.2,0.2-0.5,0.4-0.7c0.1-0.2,0.2-0.5,0.4-0.7c0.2-0.2,0.4-0.5,0.6-0.7c0.2-0.3,0.4-0.5,0.7-0.7
						c0.3-0.2,0.5-0.5,0.8-0.6c0.3-0.2,0.6-0.3,0.9-0.5c0.3-0.1,0.7-0.2,1.1-0.3c0.7-0.1,1.5-0.1,2.2,0c0.4,0,0.7,0.2,1,0.3
						c0.3,0.1,0.6,0.3,0.9,0.4c0.6,0.3,1,0.8,1.4,1.1c0.4,0.4,0.7,0.8,0.9,1.3c0.2,0.4,0.4,0.8,0.5,1.2c0.1,0.4,0.2,0.7,0.2,1
						c0.1,0.5,0.1,0.8,0.1,0.8s-0.2-0.2-0.5-0.6c-0.1-0.2-0.4-0.4-0.6-0.7c-0.2-0.3-0.5-0.5-0.8-0.8c-0.3-0.3-0.7-0.5-1-0.8
						c-0.4-0.2-0.8-0.4-1.2-0.6c-0.2-0.1-0.4-0.2-0.6-0.2c-0.2,0-0.4-0.1-0.7-0.1c-0.4-0.1-0.9,0-1.3,0l-0.6,0.2
						c-0.2,0.1-0.4,0.2-0.6,0.3c-0.2,0.1-0.4,0.3-0.6,0.4c-0.2,0.1-0.4,0.2-0.6,0.4c-0.3,0.3-0.7,0.6-1,1c-0.3,0.3-0.6,0.7-0.9,1
						c-0.2,0.3-0.5,0.6-0.7,0.9c-0.2,0.3-0.4,0.6-0.5,0.8C979.8,773.1,979.6,773.4,979.6,773.4z"/>
					<path id="XMLID_69_" class="st29" d="M959.3,778.4c0,0,0-0.3,0.1-0.8c0-0.3,0.1-0.6,0.1-0.9c0.1-0.4,0.2-0.8,0.3-1.2
						c0.1-0.2,0.1-0.5,0.2-0.7c0.1-0.2,0.2-0.5,0.4-0.7c0.1-0.2,0.2-0.5,0.4-0.7c0.2-0.2,0.4-0.5,0.6-0.7c0.2-0.3,0.4-0.5,0.7-0.7
						c0.3-0.2,0.5-0.5,0.8-0.6c0.3-0.2,0.6-0.3,0.9-0.5c0.3-0.1,0.7-0.2,1.1-0.3c0.7-0.1,1.5-0.1,2.2,0c0.4,0,0.7,0.2,1,0.3
						c0.3,0.1,0.6,0.3,0.9,0.4c0.6,0.3,1,0.8,1.4,1.1c0.4,0.4,0.7,0.8,0.9,1.3c0.2,0.4,0.4,0.8,0.5,1.2c0.1,0.4,0.2,0.7,0.2,1
						c0.1,0.5,0.1,0.8,0.1,0.8s-0.2-0.2-0.5-0.6c-0.1-0.2-0.4-0.4-0.6-0.7c-0.2-0.3-0.5-0.5-0.8-0.8c-0.3-0.3-0.7-0.5-1-0.8
						c-0.4-0.2-0.8-0.4-1.2-0.6c-0.2-0.1-0.4-0.2-0.6-0.2c-0.2,0-0.4-0.1-0.7-0.1c-0.4-0.1-0.9,0-1.3,0l-0.6,0.2
						c-0.2,0.1-0.4,0.2-0.6,0.3c-0.2,0.1-0.4,0.3-0.6,0.4c-0.2,0.1-0.4,0.2-0.6,0.4c-0.3,0.3-0.7,0.6-1,1c-0.3,0.3-0.6,0.7-0.9,1
						c-0.2,0.3-0.5,0.6-0.7,0.9c-0.2,0.3-0.4,0.6-0.5,0.8C959.5,778.2,959.3,778.4,959.3,778.4z"/>
					<path id="XMLID_68_" class="st9" d="M1051.5,894.4c1.4,3.4,1.2,7.3,0.1,10.8s-3.4,7-5.8,9.7c-0.8,6.4-2.1,12.7-2.8,19.1
						c-0.8-5.8-2-11.7-2-17.5c0-1.2-7.1-7.6-8.1-9.4c-2.1-3.7-2.9-7.3-0.1-11.1C1036,891.6,1048.3,886.7,1051.5,894.4z"/>
				</g>
				<g id="XMLID_464_">
					<path id="XMLID_539_" class="st34" d="M896.8,907.3c0.7,7.4,10.1,11.1,13.1,3.9c0.5-1.2,0.2-2.5-0.3-3.6c-0.5-1.1-1.3-2-1.9-3
						c-1.7-3.3,0.4-11.5-2.2-13.5C901.9,888.2,895.7,895.6,896.8,907.3z"/>
					<path id="XMLID_536_" class="st34" d="M925,911.6c0.7,1.7,0.6,3.7,0,5.5c-0.6,1.8-1.7,3.5-3,4.9c-0.4,3.2-1,6.5-1.4,9.7
						c-0.4-2.9-1-5.9-1-8.9c0-0.6-3.6-3.9-4.1-4.8c-1-1.9-1.5-3.7-0.1-5.6C917.1,910.2,923.4,907.7,925,911.6z"/>
					<path id="XMLID_533_" class="st32" d="M952.5,905c-3.3,8.2-10.2,14.8-18.6,17.6c-8.7,2.9-20.4,2.1-27.4-4.3
						c-5.7-5.3-8.2-14.4-7-22c0.7-4.7,3.2-9,5.7-13.1c1.3-2.1,3.9-1.9,6.3-2.3c13.4-2.1,27.7,2.3,37.6,11.7
						c2.6-3.4,3.2-7.5,2.2-11.6c2.4,1.5,4,4.1,4.6,6.9c0.6,2.8,0.2,5.7-1,8.3c1.2-1,2.4-2.4,2.8-4c0.9,2.6,0.1,5.8-2,7.5
						c1.1-0.9,2.9,0.2,3,1.6c0.1,1.4-1.1,2.6-2.4,3.1C955,904.9,953.9,905.2,952.5,905z"/>
					<path id="XMLID_530_" class="st34" d="M952.5,905c1.4,0.1,2.4-0.2,3.8-0.6c1.3-0.5,2.5-1.7,2.4-3.1c-0.1-1.4-1.9-2.5-3-1.6
						c2.1-1.8,3-4.9,2-7.5c-0.3,1.6-1.5,3-2.8,4c1.1-2.6,1.6-5.6,1-8.3c-0.6-2.8-2.2-5.4-4.6-6.9c1,4.2,0.4,8.3-2.2,11.6
						c-6.6-6.3-15.3-10.3-24.3-11.7c-4.1,12.9,2,27.8,13.7,35.5c1.2,0.8,2.5,1.4,3.7,1.9C946.8,914.8,950.4,910.3,952.5,905z"/>
					<path id="XMLID_527_" class="st34" d="M926.8,880.3c-2.4-8.5-1.6-18.6-2.3-27.4c-0.7-8.1-1.8-16.4-4.3-24.1
						c-1.2-3.9-2.5-8.7-6.5-10.3c-3.6-1.5-7.1-1.1-10.7-0.1c-10.6,3.2-12.4,16.1-11,25.6c1.3,8.4,3.3,16.3,5.5,24.5
						c1,4,2.1,8.1,3,12.1c0.4,2,1.5,5,0.6,6.7c0.2,4.9,7.3,5.6,10.9,5.1c3.6-0.5,6.8-2.9,9.3-5.5
						C923.2,885.1,925.1,881.9,926.8,880.3z"/>
					<path id="XMLID_524_" class="st9" d="M924.5,852.9c-0.7-8.1-1.8-16.4-4.3-24.1c-1.2-3.9-2.5-8.7-6.5-10.3
						c-1.8-0.8-3.6-1.1-5.4-1c5.4,4.4,8.1,13.5,9.8,20c3.1,12.2,5.6,23.9,3.1,36.6c-1.3,7.4-4.7,13.5-9.4,18.3c0.1,0,0.2,0,0.3,0
						c3.6-0.5,6.8-2.9,9.3-5.5c1.8-1.8,3.7-4.9,5.4-6.5C924.4,871.9,925.2,861.7,924.5,852.9z"/>
					<path id="XMLID_521_" class="st32" d="M927.4,888.5c-1.4,2.2-2,4.9-1.9,7.5c0,3.7,1.3,7.5,3.7,10.3s6.1,4.6,9.8,4.5
						c1.9-0.1,3.9-0.7,5-2.2s0.9-4-0.8-4.9c1.2,0,2.2-0.7,3.2-1.3c1-0.6,1.8-1.7,1.7-2.9c-0.2-1.4-1.6-2.3-2.8-3
						C940.1,893.7,932.7,890.9,927.4,888.5z"/>
					<path id="XMLID_512_" class="st10" d="M895.7,882.2c4,0.2,8.1,0,12-0.7c0.2,0,0.5-0.1,0.7-0.3c0.2-0.2,0.1-0.5,0.1-0.8
						c-0.5-3.8-0.6-8.7-5.7-6.7C901.1,874.3,895.3,882.1,895.7,882.2z"/>
					<ellipse id="XMLID_509_" class="st16" cx="911.8" cy="863.5" rx="2.8" ry="5.9"/>
					
						<ellipse id="XMLID_506_" transform="matrix(0.9814 -0.1921 0.1921 0.9814 -149.2845 189.388)" class="st16" cx="902.1" cy="864.6" rx="2.2" ry="4.6"/>
					<path id="XMLID_503_" class="st29" d="M906,844.4c0,0,0-0.2,0-0.4c0-0.1,0-0.3,0.1-0.5c0-0.2,0.1-0.4,0.2-0.6
						c0-0.1,0.1-0.2,0.1-0.4c0.1-0.1,0.1-0.2,0.2-0.4c0.1-0.1,0.1-0.3,0.2-0.4c0.1-0.1,0.2-0.2,0.3-0.4c0.1-0.1,0.2-0.2,0.3-0.4
						c0.1-0.1,0.3-0.2,0.4-0.3c0.2-0.1,0.3-0.2,0.5-0.3c0.2-0.1,0.4-0.1,0.5-0.2c0.4-0.1,0.8-0.1,1.1,0c0.2,0,0.3,0.1,0.5,0.2
						c0.2,0.1,0.3,0.1,0.5,0.2c0.3,0.2,0.5,0.4,0.7,0.6c0.2,0.2,0.4,0.4,0.5,0.7c0.1,0.2,0.2,0.4,0.3,0.6c0.1,0.2,0.1,0.3,0.1,0.5
						c0,0.3,0,0.4,0,0.4s-0.1-0.1-0.3-0.3c-0.1-0.1-0.2-0.2-0.3-0.3c-0.1-0.1-0.3-0.3-0.4-0.4c-0.1-0.1-0.3-0.3-0.5-0.4
						c-0.2-0.1-0.4-0.2-0.6-0.3c-0.1-0.1-0.2-0.1-0.3-0.1c-0.1,0-0.2-0.1-0.3-0.1c-0.2,0-0.4,0-0.7,0l-0.3,0.1
						c-0.1,0.1-0.2,0.1-0.3,0.1c-0.1,0-0.2,0.1-0.3,0.2c-0.1,0.1-0.2,0.1-0.3,0.2c-0.2,0.2-0.4,0.3-0.5,0.5
						c-0.2,0.2-0.3,0.3-0.4,0.5c-0.1,0.2-0.3,0.3-0.4,0.5c-0.1,0.2-0.2,0.3-0.3,0.4C906.1,844.3,906,844.4,906,844.4z"/>
					<path id="XMLID_469_" class="st29" d="M895.7,848.3c0,0,0-0.2,0-0.4c0-0.1,0-0.3,0.1-0.5c0-0.2,0.1-0.4,0.2-0.6
						c0-0.1,0.1-0.2,0.1-0.4c0.1-0.1,0.1-0.2,0.2-0.4c0.1-0.1,0.1-0.3,0.2-0.4c0.1-0.1,0.2-0.2,0.3-0.4c0.1-0.1,0.2-0.2,0.3-0.4
						c0.1-0.1,0.3-0.2,0.4-0.3c0.2-0.1,0.3-0.2,0.5-0.3c0.2-0.1,0.4-0.1,0.5-0.2c0.4-0.1,0.8-0.1,1.1,0c0.2,0,0.3,0.1,0.5,0.2
						c0.2,0.1,0.3,0.1,0.5,0.2c0.3,0.2,0.5,0.4,0.7,0.6c0.2,0.2,0.4,0.4,0.5,0.7c0.1,0.2,0.2,0.4,0.3,0.6c0.1,0.2,0.1,0.3,0.1,0.5
						c0,0.3,0,0.4,0,0.4s-0.1-0.1-0.3-0.3c-0.1-0.1-0.2-0.2-0.3-0.3c-0.1-0.1-0.3-0.3-0.4-0.4c-0.1-0.1-0.3-0.3-0.5-0.4
						c-0.2-0.1-0.4-0.2-0.6-0.3c-0.1-0.1-0.2-0.1-0.3-0.1c-0.1,0-0.2-0.1-0.3-0.1c-0.2,0-0.4,0-0.7,0l-0.3,0.1
						c-0.1,0.1-0.2,0.1-0.3,0.1c-0.1,0-0.2,0.1-0.3,0.2c-0.1,0.1-0.2,0.1-0.3,0.2c-0.2,0.2-0.4,0.3-0.5,0.5
						c-0.2,0.2-0.3,0.3-0.4,0.5c-0.1,0.2-0.3,0.3-0.4,0.5c-0.1,0.2-0.2,0.3-0.3,0.4C895.8,848.2,895.7,848.3,895.7,848.3z"/>
					<path id="XMLID_465_" class="st34" d="M942.9,913.9c0.7,1.7,0.6,3.7,0,5.5c-0.6,1.8-1.7,3.5-3,4.9c-0.4,3.2-1,6.5-1.4,9.7
						c-0.4-2.9-1-5.9-1-8.9c0-0.6-3.6-3.9-4.1-4.8c-1-1.9-1.5-3.7-0.1-5.6C935,912.5,941.3,910,942.9,913.9z"/>
				</g>
			</g>
		</g>
		<g id="XMLID_622_">
			<path id="XMLID_620_" class="st29" d="M1275,874.8c0,0-41.2,13.7-92.1,13.7s-92.1-13.7-92.1-13.7s41.2-13.7,92.1-13.7
				S1275,874.8,1275,874.8z"/>
			<g id="XMLID_632_">
				<path id="XMLID_45_" class="st35" d="M1086.4,379.5c-45.2,12.5-68.6,62.5-115.9,68.1c-0.5,9.8,0.1,19.4,2.4,29
					c1.5,6.2,3.8,12.7,0.8,19c3.6,7.1,30,6.2,37.3,5c14.6-2.3,31.7-9.5,43.1-19.1c13.7-11.6,22.5-36.8,27-53.3
					C1085.3,412.8,1083.4,394.8,1086.4,379.5z"/>
				<path id="XMLID_21_" class="st36" d="M997.8,580.7c6.7,44.1,30.8,77.3,72.1,92.3c59.5,21.6,125.9,10.6,164.8-45.4
					c15-21.6,22.8-47.5,26.8-73.5c12.5-80.5-11.9-167.5-69.6-225c-1.4-1.4-2.8-2.8-4.7-3.3c-2-0.5-4.1,0-6.1,0.6
					c-44,13-88.3,33.3-119.7,67.3c-29.4,31.9-51.4,71.4-60.8,113.9C995.3,531.5,994.1,556.4,997.8,580.7z"/>
				<path id="XMLID_34_" class="st35" d="M1201.7,439.7c-5.3-0.9,4.3,34.1,5.1,36.5c4.2,12.9,10.3,25.6,20.9,34.4
					c2.8,2.3,38.2,19.9,38.6,16.3c0.7-7.3-8.8-18.2-12.4-23.9c-8.7-13.8-17.4-27.7-26.3-41.3
					C1220.7,451.3,1214.2,441.7,1201.7,439.7z"/>
				<g id="XMLID_667_">
					<g id="XMLID_699_">
						<g id="XMLID_700_">
							<path id="XMLID_701_" class="st35" d="M1222,581.5l-25.7-103.4c2-33.1,23.8-93.8,28.8-107.3c-2.3-3.8-4.8-7.4-7.3-11.1
								c-36.2,33.8-45.8,90.3-53.8,138.2c-21-11-47-12-70-18c-16.2-26.5-26.8-56.9-31-88c-0.5,0.5-0.9,1-1.4,1.5
								c-4.4,16.6-6.5,33.9-10.6,51.5c-7,34-15,65-18,99c-4.1,34.4-4.7,68.6-4.3,102.8c11,11.3,24.7,20.1,41.1,26.1
								c59.5,21.6,125.9,10.6,164.8-45.4c5.9-8.5,10.7-17.7,14.5-27.2L1222,581.5z"/>
						</g>
					</g>
				</g>
				<path id="XMLID_598_" class="st37" d="M1180.7,485.2c-46.1-24-99.1-34.6-151.1-32.1c-14.8,11.3-22.7,52.3-22.5,71.8
					c-3.8,3.4-7.4,7-10.8,10.8c-1.2,15-0.8,30.1,1.4,45c6.7,44.1,30.8,77.3,72.1,92.3c59.5,21.6,125.9,10.6,164.8-45.4
					c5.7-8.2,10.4-17.1,14.2-26.3c-13.1-0.6-26.3-3.1-38.9-5.9C1197.2,559.9,1187.3,522.3,1180.7,485.2z"/>
				<path id="XMLID_28_" class="st38" d="M1049.4,479.7l-11.5,57.1l43.2,37.5c0,0,49.5-4.1,64.7-19.1c0,0,3.8-24.1,0-45.6
					L1049.4,479.7z"/>
				<path id="XMLID_706_" class="st39" d="M1037.9,536.8l43.2,37.5c0,0,49.5-4.1,64.7-19.1c0,0,3.8-24.1,0-45.6l-0.5-0.1
					c-34.2,14.8-70.2,21-106.5,22.6L1037.9,536.8z"/>
				<path id="XMLID_24_" class="st40" d="M1064.7,386.9c-18.2,22.4-27.9,51.6-26.7,80.5c4.9,1.2,10.3,3.3,15.3,3.5
					c6.1-39.9,19.5-80.2,42.1-113.6C1084.2,364.7,1073.3,376.4,1064.7,386.9z"/>
				<path id="XMLID_549_" class="st41" d="M1064.7,386.9c-2.1,2.5-4,5.2-5.9,7.9c-3.2,11.3-0.8,44.9-0.4,49.7
					c7.4-31,19.3-61.2,37-87.3C1084.2,364.7,1073.3,376.4,1064.7,386.9z"/>
				<path id="XMLID_20_" class="st42" d="M1190.5,301.9c3.1,11.5,6.4,22.9,9.9,34.2c-11.5,19.9-26.4,38.1-43.4,53.5
					C1160.5,358.9,1169.2,324.3,1190.5,301.9z"/>
				<path id="XMLID_22_" class="st36" d="M1247.6,389.6c12.1,12.9,18.5,30.1,28.4,44.8c9.8,14.7,23.1,27,31.5,42.5
					s10.7,36.5-1.1,49.6c-12.2,13.5-34.6,12.7-50.1,3.2c-15.2-9.3-22-24.1-32.1-38c-10.5-14.5-22.9-28.8-26.7-46.8
					c-3.4-16.2,0.5-67.3,21.8-72.2C1229.8,370.4,1241.3,382.8,1247.6,389.6z"/>
				<path id="XMLID_23_" class="st40" d="M1151,488.1c-3.8-51.4,27.7-107.7,65.3-135.4c3,4.6,6.8,10.9,9.8,15.5
					c-29.6,36.7-48.3,83.6-49.3,130.6L1151,488.1z"/>
				<path id="XMLID_602_" class="st41" d="M1216.3,352.7c-2.1,1.6-4.2,3.2-6.3,4.9c-27,45.4-27.3,82.1-29.2,105.6
					c7.1-34.6,23.2-67.7,45.2-95C1223.1,363.6,1219.3,357.3,1216.3,352.7z"/>
				<path id="XMLID_26_" class="st43" d="M1145.8,509.6c-31.4-12.2-63.6-22.2-96.4-29.9C1067.5,492.3,1135.2,506.9,1145.8,509.6z"/>
				<path id="XMLID_27_" class="st44" d="M1052,649.5c15.3,24.4,26.3,51.5,32.1,79.7c2.2,10.8,3.8,21.8,7.1,32.3
					c5.7,17.9,16.4,33.8,27,49.4c6.1,0.1,10.3-0.1,16.4,0.9c-6.8-50.7-15.8-101.5-29-150.9C1086.8,656.2,1070.8,653.8,1052,649.5z"
					/>
				<path id="XMLID_29_" class="st44" d="M1145.5,668.1c17.3,47.3,18.6,99.2,34.1,147.2c9.5-0.7,19-1.3,28.6-2
					c1.7-66.9,6.6-135.7,15.7-202C1200.1,632.5,1174.1,653.9,1145.5,668.1z"/>
				<path id="XMLID_32_" class="st45" d="M1140.6,874.7h-47.3c9.8-5.8,19.6-11.6,29.5-17.5c1.1-0.6,3.7,0.1,3.5-1.1
					c-1.5-12.8-3.5-25.5-6.1-38.1c3.6,0.6,8.2-0.9,11.7-1.9C1134,833.8,1137.9,857,1140.6,874.7z"/>
				<path id="XMLID_33_" class="st45" d="M1229.5,887.6h-35.2c-2.6-5.7-2.7-11.3,2.9-16.7c-1.6-14.9-5.2-29.7-10.6-44
					c5.9-3.4,11.9-4.9,19.1-4c1.3,8.2,3.3,16.3,4.6,24.5c0.5,3,0.9,6.1,1,9.1c0.1,5-0.9,10,0.2,14.9
					C1218.1,875.3,1224.5,882.8,1229.5,887.6z"/>
				<g id="XMLID_579_">
					<path id="XMLID_590_" class="st46" d="M1081.7,605.2c34.3,11.8,72.5,5.4,106.1-8.3c6.6-2.7,13.3-5.9,19.3-9.8
						c-1.8-5.2-3.5-10.5-5.2-15.9c-13,10.5-29,17.5-45,22.6C1132.5,601.5,1107.1,605.3,1081.7,605.2z"/>
					<path id="XMLID_600_" class="st46" d="M1158.3,620.7c-36.3,9.7-75.9,6.4-110-9.2c31.1,16.6,64,32.3,99.2,33.9
						c-30.3,3.8-61.3-0.9-90.6-9.8c-17.7-5.4-35.5-12.7-50.5-23.3c11.6,28.3,32.7,49.4,63.4,60.6c59.5,21.6,125.9,10.6,164.8-45.4
						c5.7-8.2,10.4-17.1,14.2-26.3c-12.6-0.6-25.4-3-37.6-5.6C1195.2,607,1177.3,615.6,1158.3,620.7z"/>
				</g>
				<path id="XMLID_36_" class="st46" d="M1154.1,580.1c-40.9,14.9-88,11.9-126.6-8.1c17.2,14.6,37.1,22.3,59.6,22.7
					C1109.7,595.1,1133.1,588.3,1154.1,580.1z"/>
				<g id="XMLID_466_">
					<path id="XMLID_576_" class="st46" d="M1094.7,755.1c1.5,4.5,5.7,7.5,10.2,9c4.5,1.5,9.3,1.7,14.1,1.8
						c5.7,15.2,10.8,30.3,15.1,45.7c0.2,0,0.3,0,0.5,0.1c-6.8-50.7-15.8-101.5-29-150.9c-18.7-4.7-34.8-7-53.6-11.4
						c7.8,12.3,14.4,25.4,19.8,38.9c15.9,18.5,28.7,39.5,37.6,62.2C1105.9,753.8,1099.1,756.6,1094.7,755.1z"/>
				</g>
				<g id="XMLID_37_">
					<path id="XMLID_606_" class="st46" d="M1224,611.3c-23.8,21.1-49.9,42.6-78.4,56.8c3,8.1,5.5,16.4,7.6,24.7
						c12.4,9.8,24.7,19.8,36.2,30.8c6,5.7,12.3,13,11.3,21.2c-0.9,8.4-8.9,14.2-16.6,17.7c4,3.3,9.2,5,14.3,4.7
						c0.1,0.6,3.3,23.6,4.8,46.4c1.7-0.1,3.4-0.2,5-0.4C1210,746.4,1214.9,677.6,1224,611.3z"/>
				</g>
				<path id="XMLID_30_" class="st47" d="M1139.5,823.2c-6.6,1-14.5,1.1-21-0.2c-3.3-7.2-5.5-14.4-8.8-21.6
					c8.8-0.3,17.7-0.3,26.5,0.3C1136.6,808.7,1137.9,816.4,1139.5,823.2z"/>
				<path id="XMLID_31_" class="st47" d="M1213.2,827.9c0.5-8,1.7-14.3,0.1-22.2c-13,3-26.5,2.9-39.6,0.6c2.9,9.6,7,18.8,12.3,27.4
					C1193.9,833.6,1206,831.3,1213.2,827.9z"/>
				<polygon id="XMLID_39_" class="st43" points="1147.5,484.3 1178.7,497.6 1178.7,504.4 1147.5,491.4 				"/>
				<polygon id="XMLID_40_" class="st43" points="1035.2,463.1 1057.5,468.4 1056,474.3 1035.2,468.7 				"/>
				<linearGradient id="XMLID_713_" gradientUnits="userSpaceOnUse" x1="1220.9963" y1="436.8892" x2="1248.1405" y2="445.5726">
					<stop  offset="0" style="stop-color:#F7A89B"/>
					<stop  offset="0.3284" style="stop-color:#F7A599"/>
					<stop  offset="0.533" style="stop-color:#F79D92"/>
					<stop  offset="0.7036" style="stop-color:#F68E86"/>
					<stop  offset="0.8547" style="stop-color:#F57A76"/>
					<stop  offset="0.9932" style="stop-color:#F46060"/>
					<stop  offset="1" style="stop-color:#F45E5F"/>
				</linearGradient>
				<path id="XMLID_42_" class="st48" d="M1251.4,423c-6.7,0-10.6-0.1-15.2,5c-6,6.6-6.8,16-12.1,23.2c-5.1,6.9,0,11.7,7.7,12
					c11.8,0.4,31-1.9,35.4-12.8C1269.9,443.4,1263.8,428.5,1251.4,423z"/>
				<path id="XMLID_44_" class="st35" d="M1328.3,494.3c14.3,32.7-7.6,65.4-37.5,62.6c-31.2-3-49-58.4-16.4-71.1
					C1293.5,478.3,1312.3,470.1,1328.3,494.3z"/>
				<path id="XMLID_47_" class="st49" d="M970.4,461c-6.9-10.1-20-17.7-25-29c-8.9-20.1-22.4-41.4-23-64
					c9.2-0.9,14.8-15.7,17.2-23.2c3-9.4,5.5-17,12.6-24.3c4.9-5.1,12.7-11.2,1.7-14.7c-11.9-3.8-29.9,9.6-34.8,19.1
					c-18.7-1.1-27.2,29.4-24,42.3c-8.7,15.4-7,34.1-7,51c0,66.1,49.9,99.6,77.4,93.2C985.7,506.6,978.6,473,970.4,461z"/>
				<linearGradient id="XMLID_714_" gradientUnits="userSpaceOnUse" x1="969.0433" y1="452.4254" x2="957.5248" y2="517.4224">
					<stop  offset="0" style="stop-color:#F45E5F"/>
					<stop  offset="0.2439" style="stop-color:#F56B6A"/>
					<stop  offset="0.6933" style="stop-color:#F68D85"/>
					<stop  offset="1" style="stop-color:#F7A89B"/>
				</linearGradient>
				<path id="XMLID_677_" class="st50" d="M970.4,461c-4.3-6.3-10.9-11.6-16.6-17.4c-0.7,22-3.5,44.9-10.8,65.7
					c8.1,2.9,15.9,3.6,22.4,2.1C985.7,506.6,978.6,473,970.4,461z"/>
				<path id="XMLID_52_" class="st49" d="M867.6,341.4c2.9,1.8,1.6,8.2,2.3,12.2c1.1,6.6,3.5,13.7,8,18.8c5.6,6.3,16.9,9.9,25.2,8.6
					c5.8-16,18.4-41.1,4.1-56.5C896.9,313.5,869.8,324.6,867.6,341.4z"/>
				<path id="XMLID_46_" class="st51" d="M1001.9,514.6c0.7-26.6-8.4-48.1-16.2-72.1c-9.9,0-24.4-1.4-31,9.1
					c-1.2,18.4,7.7,41.2,2.2,58.8C963.2,515.5,999.5,518.7,1001.9,514.6z"/>
				<linearGradient id="XMLID_715_" gradientUnits="userSpaceOnUse" x1="1273.939" y1="482.4662" x2="1327.1714" y2="526.1848">
					<stop  offset="0" style="stop-color:#F45E5F"/>
					<stop  offset="6.784976e-003" style="stop-color:#F46060"/>
					<stop  offset="0.1453" style="stop-color:#F57A76"/>
					<stop  offset="0.2964" style="stop-color:#F68E86"/>
					<stop  offset="0.467" style="stop-color:#F79D92"/>
					<stop  offset="0.6716" style="stop-color:#F7A599"/>
					<stop  offset="1" style="stop-color:#F7A89B"/>
				</linearGradient>
				<path id="XMLID_43_" class="st52" d="M1285.4,453.3c17.5,10.4,40.4,22.4,43.7,45.2c3.8,25.8-18.2,55.4-43.9,36.1
					c-14-10.5-22.3-29.3-31.2-43.7C1266.3,480.7,1271.5,461.4,1285.4,453.3z"/>
				<linearGradient id="XMLID_716_" gradientUnits="userSpaceOnUse" x1="871.2684" y1="331.8454" x2="894.7684" y2="331.8454">
					<stop  offset="0" style="stop-color:#F7A89B"/>
					<stop  offset="0.3284" style="stop-color:#F7A599"/>
					<stop  offset="0.533" style="stop-color:#F79D92"/>
					<stop  offset="0.7036" style="stop-color:#F68E86"/>
					<stop  offset="0.8547" style="stop-color:#F57A76"/>
					<stop  offset="0.9932" style="stop-color:#F46060"/>
					<stop  offset="1" style="stop-color:#F45E5F"/>
				</linearGradient>
				<path id="XMLID_50_" class="st53" d="M887.5,314.1c-17.3-16.5-17.8,17.4-14.9,26.2c2.6,8,11.1,19.4,18.7,10.7
					C898.9,342.1,892.3,327.5,887.5,314.1z"/>
				<linearGradient id="XMLID_718_" gradientUnits="userSpaceOnUse" x1="884.0156" y1="323.5434" x2="907.33" y2="323.5434">
					<stop  offset="0" style="stop-color:#F7A89B"/>
					<stop  offset="0.3284" style="stop-color:#F7A599"/>
					<stop  offset="0.533" style="stop-color:#F79D92"/>
					<stop  offset="0.7036" style="stop-color:#F68E86"/>
					<stop  offset="0.8547" style="stop-color:#F57A76"/>
					<stop  offset="0.9932" style="stop-color:#F46060"/>
					<stop  offset="1" style="stop-color:#F45E5F"/>
				</linearGradient>
				<path id="XMLID_49_" class="st54" d="M904.1,304.1c-4.5-6.9-11.3-5.6-16,0c-6.9,8.3-3.7,19-0.6,28.1c2.7,7.8,8.6,24.5,17.4,9.4
					C910,333.1,905.7,319,904.1,304.1z"/>
				<linearGradient id="XMLID_720_" gradientUnits="userSpaceOnUse" x1="914.7568" y1="340.3631" x2="908.0901" y2="293.3631">
					<stop  offset="0" style="stop-color:#F45E5F"/>
					<stop  offset="6.784976e-003" style="stop-color:#F46060"/>
					<stop  offset="0.1453" style="stop-color:#F57A76"/>
					<stop  offset="0.2964" style="stop-color:#F68E86"/>
					<stop  offset="0.467" style="stop-color:#F79D92"/>
					<stop  offset="0.6716" style="stop-color:#F7A599"/>
					<stop  offset="1" style="stop-color:#F7A89B"/>
				</linearGradient>
				<path id="XMLID_48_" class="st55" d="M922.3,329c0-10.6-0.7-25-7.3-34c-4.9-6.8-10.4-6-13.5,2.5c-3.6,9.8-0.3,24,3.3,33.3
					C908.5,339.8,915.8,342,922.3,329z"/>
				<path id="XMLID_53_" class="st56" d="M1312.5,285.3l-103.6,445.3l-19.5-7l102.8-443c1.5-6.4,8.3-9.8,14.3-7.3l0,0
					C1311.1,275.3,1313.7,280.4,1312.5,285.3z"/>
				<path id="XMLID_664_" class="st57" d="M1294.9,285.8c0,0-1.2,5.5-3.2,15.3c-1,4.9-2.3,10.7-3.7,17.5c-1.4,6.8-3.1,14.4-4.9,22.7
					c-1.8,8.3-3.8,17.3-5.9,26.8c-2.1,9.5-4.3,19.6-6.6,29.9c-4.7,20.7-9.7,42.8-14.6,65c-5.1,22.1-10.2,44.2-15,64.9
					c-2.4,10.4-4.8,20.3-7,29.8c-2.3,9.5-4.4,18.4-6.4,26.7c-2,8.3-3.8,15.8-5.4,22.6c-1.6,6.7-3.1,12.6-4.2,17.4
					c-2.4,9.6-3.8,15.1-3.8,15.1s1.2-5.5,3.2-15.3c1-4.9,2.3-10.7,3.7-17.5c1.4-6.8,3.1-14.4,4.9-22.7c1.8-8.3,3.8-17.3,5.9-26.8
					c2.1-9.5,4.3-19.6,6.6-29.9c4.7-20.7,9.7-42.8,14.6-65c5.1-22.1,10.2-44.2,15-64.9c2.4-10.4,4.8-20.3,7-29.8
					c2.3-9.5,4.4-18.4,6.4-26.7c2-8.3,3.8-15.8,5.4-22.6c1.6-6.7,3.1-12.6,4.2-17.4C1293.5,291.3,1294.9,285.8,1294.9,285.8z"/>
				<polygon id="XMLID_54_" class="st16" points="1166.8,713.3 1244.9,734.2 1239.8,749.2 1166.8,730.6 				"/>
				<path id="XMLID_55_" class="st16" d="M1176.7,727.2c0,0-0.4,2.6-1.1,7.2c-0.7,4.6-1.8,11-3.1,18.8c-2.7,15.5-6.7,36.2-11.7,56.6
					c-1.3,5.1-2.5,10.2-3.9,15.2c-1.4,5-2.8,9.9-4.2,14.6c-0.7,2.4-1.4,4.7-2.2,6.9c-0.7,2.3-1.5,4.5-2.3,6.6
					c-0.7,2.1-1.5,4.2-2.3,6.2c-0.7,2-1.6,3.9-2.3,5.7c-0.7,1.8-1.6,3.5-2.3,5.2c-0.7,1.6-1.5,3.1-2.3,4.6c-0.4,0.7-0.7,1.4-1.1,2.1
					c-0.4,0.6-0.8,1.3-1.1,1.9c-0.7,1.2-1.3,2.3-2,3.2c-0.7,0.9-1.2,1.8-1.7,2.5c-0.6,0.7-1.1,1.3-1.4,1.7c-0.8,0.9-1.2,1.4-1.2,1.4
					s0.4-0.5,1.2-1.5c0.4-0.5,0.8-1.1,1.4-1.8c0.5-0.7,1-1.6,1.6-2.6c0.6-0.9,1.2-2.1,1.9-3.3c0.3-0.6,0.7-1.2,1-1.9
					c0.3-0.7,0.7-1.4,1-2.1c0.7-1.4,1.4-3,2.1-4.6c0.7-1.6,1.4-3.4,2.1-5.2c0.7-1.8,1.4-3.7,2.1-5.7c0.7-2,1.4-4.1,2.1-6.2
					c0.7-2.1,1.4-4.3,2-6.6c0.7-2.3,1.3-4.6,1.9-7c1.3-4.7,2.5-9.7,3.7-14.7c1.2-5,2.3-10.1,3.3-15.3c4.2-20.5,7.4-41.2,9.5-56.8
					c1.1-7.8,1.9-14.3,2.4-18.8c0.5-4.5,0.8-7.1,0.8-7.1L1176.7,727.2z"/>
				<path id="XMLID_56_" class="st16" d="M1207.1,731.3c0,0-0.1,2.8-0.4,7.6c-0.3,4.8-0.9,11.7-1.7,20c-0.8,8.2-1.9,17.9-3.3,28.1
					c-0.7,5.1-1.5,10.4-2.4,15.8c-0.9,5.4-1.9,10.8-2.9,16.2c-1.1,5.4-2.2,10.8-3.5,16.1c-0.6,2.6-1.2,5.3-1.9,7.8
					c-0.7,2.6-1.3,5.1-2.1,7.6c-0.7,2.5-1.4,4.9-2.2,7.3c-0.7,2.4-1.5,4.7-2.3,6.9c-0.7,2.3-1.6,4.4-2.3,6.5c-0.8,2.1-1.6,4.1-2.4,6
					c-0.4,1-0.8,1.9-1.2,2.8c-0.4,0.9-0.8,1.8-1.2,2.6c-0.8,1.7-1.5,3.4-2.3,4.8c-0.8,1.5-1.5,2.9-2.1,4.2c-0.7,1.3-1.4,2.4-2,3.5
					c-0.3,0.5-0.6,1-0.9,1.5c-0.3,0.5-0.6,0.9-0.8,1.3c-0.5,0.8-0.9,1.5-1.3,2c-0.7,1.1-1.1,1.7-1.1,1.7s0.4-0.6,1-1.7
					c0.3-0.6,0.7-1.2,1.2-2c0.2-0.4,0.5-0.8,0.8-1.3c0.2-0.5,0.5-1,0.8-1.5c0.6-1.1,1.2-2.2,1.9-3.5c0.6-1.3,1.3-2.7,2-4.2
					c0.7-1.5,1.4-3.2,2.1-4.9c0.4-0.9,0.7-1.8,1.1-2.7c0.3-0.9,0.7-1.9,1.1-2.8c0.7-1.9,1.5-3.9,2.1-6.1c0.7-2.1,1.4-4.3,2.1-6.5
					c0.7-2.3,1.4-4.6,2-7c0.7-2.4,1.3-4.8,1.9-7.3c0.6-2.5,1.2-5,1.8-7.6c0.6-2.6,1.1-5.2,1.7-7.9c1.1-5.3,2-10.7,2.9-16.1
					c0.9-5.4,1.7-10.8,2.3-16.2c0.7-5.4,1.3-10.6,1.8-15.8c1.1-10.2,1.8-19.8,2.3-28c0.5-8.2,0.8-15.1,1-19.8
					c0.2-4.8,0.2-7.5,0.2-7.5L1207.1,731.3z"/>
				<path id="XMLID_57_" class="st16" d="M1238.9,740.6c0,0,0.2,0.6,0.6,1.7c0.4,1.1,0.9,2.8,1.5,4.9c1.2,4.2,2.9,10.2,4.6,17.4
					c0.8,3.6,1.7,7.6,2.5,11.8c0.8,4.2,1.6,8.6,2.3,13.2c0.7,4.6,1.3,9.4,1.8,14.2c0.1,1.2,0.2,2.4,0.4,3.7c0.1,1.2,0.2,2.5,0.3,3.7
					c0.2,2.5,0.3,4.9,0.5,7.4c0.1,2.5,0.2,5,0.2,7.4c0,2.5,0,4.9,0,7.4c-0.1,4.9-0.3,9.7-0.8,14.3c-0.2,2.3-0.4,4.6-0.8,6.8
					c-0.3,2.2-0.6,4.4-1,6.5c-0.7,4.2-1.6,8.1-2.6,11.7c-0.5,1.8-1,3.5-1.5,5.1c-0.5,1.6-1.1,3.1-1.6,4.5c-0.5,1.4-1,2.7-1.5,3.9
					c-0.5,1.2-0.9,2.3-1.4,3.3c-0.9,2-1.7,3.5-2.2,4.5c-0.5,1-0.8,1.6-0.8,1.6s0.2-0.6,0.7-1.6c0.5-1.1,1.2-2.6,2-4.6
					c0.4-1,0.8-2.1,1.2-3.4c0.4-1.2,0.9-2.5,1.3-4c0.4-1.4,0.9-3,1.4-4.6c0.4-1.6,0.8-3.4,1.3-5.1c0.8-3.6,1.5-7.5,2.1-11.7
					c0.3-2.1,0.5-4.2,0.7-6.4c0.3-2.2,0.3-4.5,0.5-6.8c0.3-4.6,0.3-9.3,0.2-14.2c-0.1-2.4-0.2-4.8-0.3-7.3c-0.2-2.4-0.3-4.9-0.5-7.3
					c-0.2-2.4-0.4-4.9-0.8-7.3c-0.1-1.2-0.3-2.4-0.4-3.6c-0.2-1.2-0.3-2.4-0.5-3.6c-0.7-4.8-1.5-9.5-2.4-14
					c-0.9-4.5-1.8-8.8-2.8-12.9c-1-4.1-2-7.9-3-11.5c-2-7.1-3.8-12.9-5.2-16.9c-0.7-2-1.3-3.6-1.7-4.7c-0.4-1.1-0.6-1.6-0.6-1.6
					L1238.9,740.6z"/>
				<g id="XMLID_463_">
					<path id="XMLID_2_" class="st49" d="M1097.2,212.9c0,22.6,1.6,47-4.7,68.6c-7.1,24.4-31.4,43.7-31.7,70.1
						c-0.3,28.2,32.9,34.5,55.1,32.1c45.8-4.9,67.7-43.9,72.5-86.1c3.3-29.1,11.3-71.4-14.7-92.6c-13.6-11.2-35.7-16.6-52.9-11.6
						C1114.5,195.2,1098,204,1097.2,212.9z"/>
					<path id="XMLID_10_" class="st58" d="M1097.2,240.7c4.5-2.3,8.8-5.3,14.1-5c0.2,2.1,1.1,4.2,2.1,6.1c0.4-2.3,1.1-4.8,0.8-7.2
						c2.2,4.5,2.2,9.9,3.7,14.3c-6.8-1.6-18.9-1.6-24.7,3C1093.2,248.1,1095.1,244,1097.2,240.7z"/>
					<path id="XMLID_16_" class="st59" d="M1136.6,313.6c-1.1,6.3-0.1,11.6-4.1,17c-3.3,4.5-8.9,8.3-14.3,9.5
						c-9.1,2-17.5-0.7-25.9-3.7c0-8.5-1.5-16.9-1.7-25.3C1104.8,303.6,1122.2,312.6,1136.6,313.6z"/>
					<path id="XMLID_571_" class="st60" d="M1099,338.7c6.2,1.9,12.5,2.9,19.2,1.4c5.4-1.2,11-5,14.3-9.5c0.5-0.7,1-1.4,1.3-2.1
						C1121.4,328.4,1108.8,331.5,1099,338.7z"/>
					<path id="XMLID_11_" class="st58" d="M1161,261.8c-3-5.9-16.5-10.4-23.2-11.6c-0.4-4.2,2-11.5,5-14.1c-0.5,2.5-0.6,4.7-0.8,7.3
						c1.8-2.6,2.7-5.3,5.9-5.6c3.3-0.3,8,3.2,10.6,4.9c1.5,1,5,2.9,5.5,4.6C1165.1,250.6,1161.7,258.2,1161,261.8z"/>
					<path id="XMLID_17_" class="st58" d="M1193.8,306.6c-3.5,27.6-7.9,54.6-20.9,79.5c-5,9.6-9.7,18.9-17.9,26.3
						c-7.1,6.4-15.2,11.2-23.3,16.1c-4.4,2.6-12.2,7.7-17.4,7c4.2-5.4,10.7-14.4,10.4-21.5c-6.8,7.6-13.8,14.8-21.5,21.5
						c-4.5,3.8-10,5.8-14.5,8.8c-10.7-5.6-18.5-16.1-23.9-26.5c-2.9-5.5-5.5-11.1-8.2-16.7c-1.1-2.3-3.1-5.1-3.1-7.8
						c-2.3,2.3-1.8,7-0.4,9.9c-6.9-6.5-15.4-15-17.2-24.8c-3.1-16.3,8.1-62.1,50-70.8c-8.8,10.6-12.3,31.1-9.6,44.5
						c2.2,11,18.6,18.1,23.3,4.8c-2.9,0.2-6.5-3.8-7-6.6c8.2,4.8,20.7,3.5,29.4,0.8c-1.8,2.5-6.5,5.7-9.5,6.2
						c0.3,4.3-2.1,7.6,2.9,9.6c5.1,2.1,12.3,0,17.2-1.9c32.4-12.6,51.7-52.2,57.8-84c-4-3.1-8.6-5.8-11.2-10.8
						c-5.3-10.2-5.4-22.3-5.4-33.6c4.2,2.1,14.9-0.5,20.1,0.2c4.2,0.6,8.9,0.9,12.6,3.1c-2,12.3-0.6,23.6-3.4,36.1
						c-1.6,7-2.8,14.7-5.5,21.4C1196.2,300.1,1194.1,304.4,1193.8,306.6z"/>
					<g id="XMLID_581_">
						<g id="XMLID_644_">
							<g id="XMLID_647_">
								<path id="XMLID_648_" class="st57" d="M1085.3,381.2c-8.6,7.1-12.1,24-11.3,34.4c-6.8-17.2-18.5-31.2-18.9-50.5
									c-2.9,5.9-6.7,14.1-8,21.3c-4.4-9.1-2-25.2,3.6-33.8c-3.5,4-7.3,7.6-8.8,12.9c4.6-19.8,15.4-40.2,31.1-54.1
									c-31.8,14.1-40.5,52.3-37.7,66.9c1.8,9.8,10.2,18.3,17.2,24.8c-1.3-2.8-1.8-7.5,0.4-9.9c0,2.6,2,5.4,3.1,7.8
									c2.7,5.6,5.3,11.2,8.2,16.7c5.4,10.3,13.1,20.7,23.6,26.3C1084.1,424.5,1082.8,402.2,1085.3,381.2z"/>
							</g>
							<g id="XMLID_645_">
								<path id="XMLID_646_" class="st57" d="M1137.6,417.5c-2.7,1.6-5.8,2.9-8.2,4.9c4.9-5.4,3-17,1.1-23.5
									c-1.5-5-8.6-11.4-12.7-14.7c4.6,13.3,5.8,20.3,6.3,29.7c0.3,7.2-6.1,16.2-10.4,21.5c5.2,0.6,13-4.4,17.4-7
									c8.1-4.8,16.2-9.6,23.3-16.1c8.2-7.4,12.9-16.6,17.9-26.3c0.7-1.4,1.4-2.8,2.1-4.3c-4.2,6.4-8.9,12.3-13.8,17.5
									C1154,406.5,1146.1,412.6,1137.6,417.5z"/>
							</g>
						</g>
					</g>
					<path id="XMLID_14_" class="st58" d="M1108,295.4c-3.7-0.7-10-0.5-13.3-2.5c-7.7,0.7-12.6-0.4-19.4,4.7
						c-5.7,4.3-10,6.7-16.5,8.9c10,12.1,27.4,14,39.7,5c9.5,4.3,16.2,8.3,27.1,8.3c9.7,0,18.7-3.9,24.9-11.2
						c-9.9,0.7-17.4-7.2-25.8-11C1119.4,295.3,1113.7,296.4,1108,295.4z"/>
					<ellipse id="XMLID_15_" class="st61" cx="1114.8" cy="269.3" rx="3.1" ry="7.5"/>
					<path id="XMLID_9_" class="st62" d="M1090,292.3c5,12.6,30,16.4,38.6,6.4c2.3-2.6,5-11.6,1.3-14.4c-1.6-1.2-6,1.1-7.9,1.6
						c-6.8,1.9-13.6,3.7-20.4,5.5C1098.6,292.3,1092.8,294.6,1090,292.3z"/>
					<linearGradient id="XMLID_721_" gradientUnits="userSpaceOnUse" x1="1081.0861" y1="283.6237" x2="1132.3074" y2="283.6237">
						<stop  offset="0" style="stop-color:#F45E5F"/>
						<stop  offset="1" style="stop-color:#F7A89B"/>
					</linearGradient>
					<path id="XMLID_12_" class="st63" d="M1124.3,275.7c-15-9.4-45.8-12.1-43,6.1c1.7,11.1,10.5,16.5,21.2,17
						c8.7,0.4,21.4,0.6,27.6-6.8C1135,286,1131.4,280.1,1124.3,275.7z"/>
					<ellipse id="XMLID_13_" class="st61" cx="1143.4" cy="272.6" rx="3.1" ry="7.5"/>
					<path id="XMLID_18_" class="st49" d="M1194.6,269.2c5.1-4.5,14.6-9.3,19.5-2.2c6.3,9.2-2.6,22.7-8.4,29.9
						c-6.4,8.2-20.3,18.9-31.6,14.2C1174.2,297.1,1186.2,276.6,1194.6,269.2z"/>
					<path id="XMLID_19_" class="st64" d="M1186.7,290c1.4-5.7,9.3-16.7,15.5-18.2c4.2-1,7.3,2.5,6.4,6.5c-4.7-6.6-9.8,2.6-12.8,6.2
						c11,4.5-3.7,18.3-10.7,15c3.4-2.1,9.3-5.3,8.2-10.2C1191.2,288.8,1188.9,289.5,1186.7,290z"/>
					<g id="XMLID_507_">
						<path id="XMLID_534_" class="st57" d="M1099,308.2c-21.3,15.2-40.2-1.6-40.2-1.6c10,12.1,27.4,14,39.7,5
							c9.5,4.3,16.2,8.3,27.1,8.3c9.7,0,18.7-3.9,24.9-11.2C1121.7,325.7,1099,308.2,1099,308.2z"/>
					</g>
					<linearGradient id="XMLID_722_" gradientUnits="userSpaceOnUse" x1="1149.1072" y1="276.9638" x2="1156.3572" y2="298.4638">
						<stop  offset="0" style="stop-color:#F45E5F"/>
						<stop  offset="6.784976e-003" style="stop-color:#F46060"/>
						<stop  offset="0.1453" style="stop-color:#F57A76"/>
						<stop  offset="0.2964" style="stop-color:#F68E86"/>
						<stop  offset="0.467" style="stop-color:#F79D92"/>
						<stop  offset="0.6716" style="stop-color:#F7A599"/>
						<stop  offset="1" style="stop-color:#F7A89B"/>
					</linearGradient>
					<path id="XMLID_58_" class="st65" d="M1172.6,282.9c1.7,6.8-5.8,14.6-16.7,17.4c-10.9,2.8-21.2-0.5-22.9-7.4
						c-1.7-6.8,5.8-14.6,16.7-17.4C1160.6,272.7,1170.9,276,1172.6,282.9z"/>
					<path id="XMLID_7_" class="st66" d="M1295,252.7c0,0-71.3,10.3-150.9-9.7c-79.7-20-137.6-62.8-137.6-62.8s71.3-10.3,150.9,9.7
						C1237,209.9,1295,252.7,1295,252.7z"/>
					<g id="XMLID_471_">
						<path id="XMLID_504_" class="st67" d="M1034.4,180.2c0,0,12.4-1.8,32.7-2.4c-36.3-1.1-60.7,2.4-60.7,2.4s57.9,42.8,137.6,62.8
							c46.4,11.7,89.9,13,118.2,12.2c-25.6-0.8-57.2-3.9-90.2-12.2C1092.3,222.9,1034.4,180.2,1034.4,180.2z"/>
					</g>
					<path id="XMLID_505_" class="st57" d="M1276,254.2c-6.3,0.3-12.7,0.5-19,0.5c-3.2,0-6.3,0-9.5,0l-9.5-0.2l-9.5-0.4
						c-3.2-0.1-6.3-0.4-9.5-0.6l-4.7-0.3l-4.7-0.5c-3.1-0.3-6.3-0.6-9.4-0.9c-6.3-0.8-12.5-1.5-18.8-2.6c-3.1-0.5-6.2-0.9-9.3-1.5
						l-9.3-1.8c-1.5-0.3-3.1-0.6-4.6-0.9l-4.6-1.1l-9.2-2.1l-9.1-2.5l-4.6-1.3c-1.5-0.4-3-0.9-4.5-1.4l-9-2.9c-3-1-6-2.1-8.9-3.1
						c-6-2-11.8-4.5-17.7-6.7c-2.9-1.2-5.8-2.5-8.7-3.7l-4.4-1.9l-4.3-2c-2.9-1.3-5.8-2.6-8.6-4l-8.5-4.2l-8.4-4.4
						c-2.8-1.5-5.5-3-8.3-4.5c-5.5-3.1-11-6.3-16.3-9.6c-4.5-2.8-9-5.7-13.4-8.7c1.1-0.1,2.2-0.3,3.2-0.4c2.1-0.2,4.1-0.4,6.2-0.6
						c4.2-0.4,8.3-0.7,12.5-0.9c2.1-0.1,4.2-0.2,6.3-0.3c2.1-0.1,4.2-0.2,6.3-0.2l6.3-0.1l6.3,0c2.1,0,4.2,0,6.3,0
						c2.1,0,4.2,0,6.3,0.1l6.3,0.2c2.1,0.1,4.2,0.2,6.3,0.3c2.1,0.1,4.2,0.2,6.3,0.3l6.3,0.4c2.1,0.1,4.2,0.3,6.3,0.5l6.3,0.6
						l-6.2-0.8c-2.1-0.3-4.2-0.5-6.2-0.7l-6.3-0.6c-2.1-0.2-4.2-0.3-6.3-0.5c-2.1-0.1-4.2-0.3-6.3-0.4l-6.3-0.3
						c-2.1-0.1-4.2-0.2-6.3-0.3c-2.1-0.1-4.2-0.2-6.3-0.2l-6.3-0.1l-6.3,0c-2.1,0-4.2,0.1-6.3,0.1c-2.1,0-4.2,0.1-6.3,0.2
						c-4.2,0.2-8.4,0.4-12.6,0.7c-2.1,0.2-4.2,0.3-6.3,0.5c-2.1,0.2-4.2,0.4-6.3,0.7l-2.9,0.4l2.3,1.7c5.2,3.8,10.5,7.3,15.8,10.7
						c5.4,3.3,10.9,6.6,16.4,9.7c2.8,1.5,5.5,3.1,8.3,4.6l8.4,4.4l8.5,4.2c2.8,1.4,5.8,2.7,8.6,4.1l4.3,2l4.4,1.9
						c2.9,1.2,5.8,2.5,8.8,3.7c5.9,2.3,11.8,4.7,17.8,6.7c3,1,6,2.2,9,3.1l9.1,2.8c1.5,0.5,3,1,4.6,1.4l4.6,1.2l9.2,2.5l9.3,2.1
						l4.6,1.1c1.5,0.4,3.1,0.6,4.7,0.9l9.4,1.8c1.6,0.3,3.1,0.5,4.7,0.8l4.7,0.7c6.3,1,12.6,1.6,18.9,2.3c3.2,0.3,6.3,0.5,9.5,0.8
						l4.7,0.4l4.8,0.2c3.2,0.1,6.3,0.4,9.5,0.4l9.5,0.2c6.3,0.1,12.7,0,19-0.2c6.3-0.2,12.7-0.6,19-1c6.3-0.5,12.6-1.2,18.9-2.1
						C1288.7,253.4,1282.3,253.8,1276,254.2z"/>
					<path id="XMLID_8_" class="st68" d="M1206.8,228.5c0.6-15.7,5.8-43.3-3.3-56.8c-9.2-13.7-32.8-38-49.7-30.7
						c-25.4,11-44.2,35.8-61.3,56.4C1107.6,212.4,1177,234.3,1206.8,228.5z"/>
					<path id="XMLID_540_" class="st67" d="M1148.7,143.4c-22.9,11.9-40.3,34.8-56.3,53.9c8.3,8.2,32.8,18.5,58.2,25.2
						C1154,196.4,1153.4,169.8,1148.7,143.4z"/>
					<g id="XMLID_467_">
						<path id="XMLID_483_" class="st69" d="M1203.5,171.7c-8.3-12.2-28-32.9-44.1-32c2.7,17.3,11.6,35.6,25.7,44.3
							c3.3,2,9.4,4.1,12,6.9c3.7,4,2,12.1,0.7,17.7c-2.1,9.1-6.8,15.8-12.8,20.4c8.4,0.8,15.9,0.7,21.9-0.4
							C1207.5,212.7,1212.7,185.2,1203.5,171.7z"/>
					</g>
				</g>
				<path id="XMLID_41_" class="st49" d="M1288.7,438.8c-4.5-4.2-7.4-9.1-12.8-12.5c-6-3.7-11.6-6.7-18.6-7.4
					c-4.7-0.5-11.1-0.7-12.5,5.2c-1.5,6,5.4,10.5,8.6,14.3c-5.7-0.5-12.4,2.5-13.4,8.6c-1.2,7.2,5.2,8.8,10.1,11.7
					c-6.2-0.1-11.4,0.2-13.5,7c-2.5,8.2,4,13,10,15.8c-12.2-0.3-11.6,10.6-2,15.2c7,3.4,18.9,9.7,26.3,4.6c5.7-3.9,7.4-9.1,9.1-15.3
					c1.9-6.8,5.5-12.4,8.2-18.7C1291.4,459.7,1294.7,446.6,1288.7,438.8z"/>
				<path id="XMLID_25_" class="st64" d="M1253.5,438.5c4.7,0.6,23.5,6.6,26.9,9.6C1278.4,448.5,1253.5,438.4,1253.5,438.5z"/>
				<path id="XMLID_35_" class="st64" d="M1248.7,458.5c3.9,0.4,19,4.8,21.9,6.9C1268.9,465.6,1248.8,458.4,1248.7,458.5z"/>
				<path id="XMLID_38_" class="st64" d="M1246,480.8c3.9,0.4,19,4.8,21.9,6.9C1266.2,488,1246.1,480.8,1246,480.8z"/>
				<polygon id="XMLID_629_" class="st16" points="1184.8,719.3 1203.5,649.5 1229.5,659.6 1214.1,731.1 				"/>
				<path id="XMLID_670_" class="st57" d="M1229.5,659.6c-4.2-1.9-8.5-3.8-12.8-5.6c-4.3-1.9-8.6-3.6-12.8-5.4l-1-0.4l-0.3,1.1
					l-2.5,8.7l-2.5,8.7c-1.7,5.8-3.2,11.6-4.8,17.4c-1.6,5.8-3.1,11.6-4.6,17.5l-2.2,8.8c-0.6,2.5-1.3,5-1.9,7.5l-7.8-2.4l-9-2.7
					l-1-0.3l0,1l0.3,8.7c0.1,2.9,0.3,5.8,0.4,8.7c0.2-2.9,0.3-5.8,0.4-8.7l0.3-7.6l7.9,2.9l8.9,3.2l1.2,0.4l0.4-1.3
					c0.9-2.9,1.6-5.8,2.5-8.7l2.4-8.7c1.6-5.8,3.2-11.6,4.7-17.4c1.5-5.8,3.1-11.6,4.6-17.5l2.2-8.8l1.9-7.7c4,1.4,8,2.9,12,4.3
					C1220.6,656.6,1225,658.1,1229.5,659.6z"/>
			</g>
		</g>
	</g>
</g>
</svg>
