<?xml version="1.0" encoding="utf-8"?>
<!-- Generator: Adobe Illustrator 23.0.1, SVG Export Plug-In . SVG Version: 6.00 Build 0)  -->
<svg version="1.1" id="Layer_1" xmlns="http://www.w3.org/2000/svg" xmlns:xlink="http://www.w3.org/1999/xlink" x="0px" y="0px"
	 viewBox="0 0 2800 1960" style="enable-background:new 0 0 2800 1960;" xml:space="preserve">
<style type="text/css">
	.st0{fill:url(#SVGID_1_);}
	.st1{fill:#EFF9FE;}
</style>
<linearGradient id="SVGID_1_" gradientUnits="userSpaceOnUse" x1="7275.4268" y1="648.9406" x2="7275.4268" y2="3061.5452" gradientTransform="matrix(-0.8124 0 0 0.8124 7310.5566 -527.1993)">
	<stop  offset="5.618000e-03" style="stop-color:#8ED8F8"/>
	<stop  offset="5.671940e-02" style="stop-color:#A5E0F9"/>
	<stop  offset="0.1344" style="stop-color:#C1EAFB"/>
	<stop  offset="0.2224" style="stop-color:#D8F1FD"/>
	<stop  offset="0.3235" style="stop-color:#E9F8FE"/>
	<stop  offset="0.4454" style="stop-color:#F6FCFE"/>
	<stop  offset="0.6099" style="stop-color:#FDFEFF"/>
	<stop  offset="1" style="stop-color:#FFFFFF"/>
</linearGradient>
<path class="st0" d="M0,1957V3c0-1.7,1.3-3,3-3h2794c1.7,0,3,1.3,3,3v1954c0,1.7-1.3,3-3,3H3C1.3,1960,0,1958.7,0,1957z"/>
<g>
	<path class="st1" d="M-599.9,826v463.3v372.4v277.6h3999.8v-277.6v-372.2V826l0,0c0-478.8-408.3-832.7-794.2-498.2
		c-22.4,19.4-52.9,59.3-67.7,88.6c-10.1,20-19.4,40.2-28,60.4c-78.1-15.9-165.8,6.2-251.8,81c-17,14.8-31.7,34-43.1,56.5
		c-16,31.4-28.9,63.2-38.7,94.6c-45.6,4.3-92.9,20.2-140.4,49.4c-102.6-58.5-231.6-52.5-357,56.6c-18.6,16.1-34.6,37-47,61.5
		c-7.6,15.1-14.6,30.3-21,45.4c-39.3,9.7-79.7,30.8-119.7,65.6c-2,1.7-3.9,3.4-5.7,5.2c-71.1-35.1-158.1-27.7-243.1,46.2
		c-6.6,5.8-12.6,12.2-18.1,19.4c-5.1-12.2-10.9-24.5-17-36.6c-10.1-19.8-23.1-37-38.4-50.3c-135.1-117.4-275.1-88.2-364.3,14.6
		c-54-26-106.9-28.4-154.4-12.9c-8.3-21.1-17.6-42.3-28.3-63.2c-12.9-25.4-29.4-47.1-48.9-63.9c-96.3-83.6-194.6-107.7-282-89.4
		C254.1,348.1-104.2,68.6-443.8,363.3c-20.7,17.9-49,55-62.7,82.1C-571.5,573.8-599.9,704.3-599.9,826L-599.9,826z"/>
</g>
</svg>
